<svg width="352" height="227" viewBox="0 0 352 227" fill="none" xmlns="http://www.w3.org/2000/svg">
<g clip-path="url(#clip0_2005_988)">
<path d="M245.678 153.09C209.466 153.091 177.959 126.153 173.305 89.4104L174.194 89.2982C178.791 125.587 209.914 152.193 245.679 152.195C248.717 152.195 251.753 152.004 254.768 151.623C294.213 146.654 322.25 110.61 317.267 71.2743L318.156 71.1621C323.201 110.987 294.816 147.48 254.88 152.511C251.828 152.896 248.755 153.089 245.678 153.09Z" fill="#3F3D56"/>
<path d="M274.554 36.0507C272.195 29.8307 272.41 22.9308 275.152 16.869C277.894 10.8071 282.939 6.0797 289.176 3.72684C295.413 1.37398 302.332 1.58835 308.411 4.32279C314.49 7.05723 319.23 12.0878 321.59 18.3077L320.751 18.6242C318.476 12.6261 313.904 7.77503 308.042 5.13811C302.18 2.50118 295.508 2.29443 289.493 4.56335C283.478 6.83226 278.614 11.391 275.97 17.2366C273.325 23.0823 273.118 29.736 275.393 35.7341L274.554 36.0507Z" fill="#3F3D56"/>
<path d="M347.393 79.8146H301.815C300.593 79.8132 299.422 79.3287 298.559 78.4674C297.695 77.606 297.209 76.4382 297.208 75.2202V15.0378C297.209 13.8197 297.695 12.6519 298.559 11.7906C299.422 10.9292 300.593 10.4447 301.815 10.4434H347.393C348.614 10.4447 349.785 10.9292 350.649 11.7906C351.513 12.6519 351.999 13.8197 352 15.0378V75.2202C351.999 76.4382 351.513 77.606 350.649 78.4674C349.785 79.3287 348.614 79.8132 347.393 79.8146Z" fill="#E6E6E6"/>
<path d="M329.284 76.209H305.019C303.875 76.2078 302.778 75.754 301.969 74.9474C301.16 74.1407 300.705 73.047 300.704 71.9062V18.3521C300.705 17.2113 301.16 16.1176 301.969 15.311C302.778 14.5043 303.875 14.0506 305.019 14.0493H344.189C345.333 14.0506 346.43 14.5043 347.239 15.311C348.048 16.1176 348.503 17.2113 348.504 18.3521V57.0428C348.498 62.1243 346.471 66.996 342.868 70.5891C339.265 74.1822 334.38 76.2033 329.284 76.209Z" fill="white"/>
<path d="M340.282 40.9057H308.926C308.655 40.9057 308.395 40.7983 308.203 40.6071C308.012 40.4158 307.904 40.1564 307.904 39.886C307.904 39.6155 308.012 39.3561 308.203 39.1649C308.395 38.9737 308.655 38.8662 308.926 38.8662H340.282C340.553 38.8662 340.813 38.9737 341.005 39.1649C341.196 39.3561 341.304 39.6155 341.304 39.886C341.304 40.1564 341.196 40.4158 341.005 40.6071C340.813 40.7983 340.553 40.9057 340.282 40.9057Z" fill="#E4E4E4"/>
<path d="M340.282 44.9351H308.926C308.655 44.9346 308.396 44.8269 308.205 44.6357C308.013 44.4445 307.906 44.1854 307.906 43.9153C307.906 43.6452 308.013 43.3861 308.205 43.195C308.396 43.0038 308.655 42.8961 308.926 42.8955H340.282C340.553 42.8955 340.813 43.003 341.005 43.1942C341.196 43.3855 341.304 43.6449 341.304 43.9153C341.304 44.1858 341.196 44.4452 341.005 44.6364C340.813 44.8277 340.553 44.9351 340.282 44.9351Z" fill="#E4E4E4"/>
<path d="M322.518 48.9649H308.926C308.655 48.9649 308.395 48.8575 308.203 48.6662C308.011 48.475 307.904 48.2156 307.904 47.9451C307.904 47.6746 308.011 47.4152 308.203 47.224C308.395 47.0327 308.655 46.9253 308.926 46.9253H322.518C322.789 46.9253 323.049 47.0327 323.241 47.224C323.433 47.4152 323.541 47.6746 323.541 47.9451C323.541 48.2156 323.433 48.475 323.241 48.6662C323.049 48.8575 322.789 48.9649 322.518 48.9649Z" fill="#E4E4E4"/>
<path d="M340.282 24.4502H308.926C308.655 24.4502 308.395 24.3427 308.203 24.1515C308.012 23.9602 307.904 23.7009 307.904 23.4304C307.904 23.1599 308.012 22.9006 308.203 22.7093C308.395 22.5181 308.655 22.4106 308.926 22.4106H340.282C340.553 22.4106 340.813 22.5181 341.005 22.7093C341.196 22.9006 341.304 23.1599 341.304 23.4304C341.304 23.7009 341.196 23.9602 341.005 24.1515C340.813 24.3427 340.553 24.4502 340.282 24.4502Z" fill="#E4E4E4"/>
<path d="M340.281 28.4796H308.926C308.655 28.4796 308.395 28.3721 308.203 28.1809C308.011 27.9896 307.904 27.7302 307.904 27.4598C307.904 27.1893 308.011 26.9299 308.203 26.7386C308.395 26.5474 308.655 26.4399 308.926 26.4399H340.281C340.553 26.4399 340.813 26.5474 341.005 26.7386C341.196 26.9299 341.304 27.1893 341.304 27.4598C341.304 27.7302 341.196 27.9896 341.005 28.1809C340.813 28.3721 340.553 28.4796 340.281 28.4796Z" fill="#E4E4E4"/>
<path d="M322.518 32.5093H308.926C308.655 32.5088 308.396 32.4011 308.205 32.2099C308.013 32.0187 307.906 31.7596 307.906 31.4895C307.906 31.2194 308.013 30.9604 308.205 30.7692C308.396 30.578 308.655 30.4703 308.926 30.4697H322.518C322.789 30.4703 323.048 30.578 323.24 30.7692C323.431 30.9604 323.539 31.2194 323.539 31.4895C323.539 31.7596 323.431 32.0187 323.24 32.2099C323.048 32.4011 322.789 32.5088 322.518 32.5093Z" fill="#E4E4E4"/>
<path d="M340.282 57.937H308.926C308.655 57.937 308.395 57.8295 308.203 57.6383C308.012 57.4471 307.904 57.1877 307.904 56.9172C307.904 56.6468 308.012 56.3874 308.203 56.1961C308.395 56.0049 308.655 55.8975 308.926 55.8975H340.282C340.553 55.8975 340.813 56.0049 341.005 56.1961C341.196 56.3874 341.304 56.6468 341.304 56.9172C341.304 57.1877 341.196 57.4471 341.005 57.6383C340.813 57.8295 340.553 57.937 340.282 57.937Z" fill="#FF8B16"/>
<path d="M313.831 61.9669H308.926C308.655 61.9663 308.396 61.8586 308.205 61.6674C308.013 61.4762 307.906 61.2171 307.906 60.947C307.906 60.6769 308.013 60.4179 308.205 60.2267C308.396 60.0355 308.655 59.9278 308.926 59.9272H313.831C314.102 59.9272 314.362 60.0347 314.554 60.2259C314.746 60.4172 314.854 60.6766 314.854 60.947C314.854 61.2175 314.746 61.4769 314.554 61.6682C314.362 61.8594 314.102 61.9669 313.831 61.9669Z" fill="#FF8B16"/>
<path d="M322.518 65.9961H308.926C308.655 65.9961 308.395 65.8887 308.203 65.6975C308.011 65.5062 307.904 65.2468 307.904 64.9763C307.904 64.7059 308.011 64.4465 308.203 64.2552C308.395 64.064 308.655 63.9565 308.926 63.9565H322.518C322.789 63.9565 323.049 64.064 323.241 64.2552C323.433 64.4465 323.541 64.7059 323.541 64.9763C323.541 65.2468 323.433 65.5062 323.241 65.6975C323.049 65.8887 322.789 65.9961 322.518 65.9961Z" fill="#FF8B16"/>
<path d="M173.984 77.7974C170.035 67.3707 170.399 55.8067 174.997 45.6478C179.596 35.4889 188.051 27.5669 198.505 23.6234C208.959 19.6799 220.555 20.0379 230.745 24.6185C240.934 29.1991 248.882 37.6275 252.842 48.0505L252.003 48.367C250.087 43.3115 247.192 38.6819 243.482 34.7426C239.771 30.8033 235.319 27.6315 230.38 25.4084C225.44 23.1853 220.11 21.9544 214.693 21.7861C209.276 21.6178 203.879 22.5153 198.81 24.4274C193.741 26.3395 189.1 29.2287 185.151 32.9299C181.202 36.6312 178.023 41.0721 175.795 45.9988C173.568 50.9255 172.336 56.2416 172.169 61.6434C172.002 67.0452 172.904 72.4268 174.823 77.4809L173.984 77.7974Z" fill="#3F3D56"/>
<path d="M252.358 9.24831C254.722 9.24831 256.638 7.33759 256.638 4.9806C256.638 2.62361 254.722 0.712891 252.358 0.712891C249.995 0.712891 248.079 2.62361 248.079 4.9806C248.079 7.33759 249.995 9.24831 252.358 9.24831Z" fill="#E6E6E6"/>
<path d="M258.186 132.192C260.55 132.192 262.466 130.281 262.466 127.924C262.466 125.567 260.55 123.656 258.186 123.656C255.823 123.656 253.907 125.567 253.907 127.924C253.907 130.281 255.823 132.192 258.186 132.192Z" fill="#E6E6E6"/>
<path d="M148.35 30.7078C150.713 30.7078 152.63 28.7971 152.63 26.4401C152.63 24.0831 150.713 22.1724 148.35 22.1724C145.986 22.1724 144.07 24.0831 144.07 26.4401C144.07 28.7971 145.986 30.7078 148.35 30.7078Z" fill="#E6E6E6"/>
<path d="M207.435 201.801H109.463C106.838 201.798 104.321 200.756 102.464 198.905C100.607 197.053 99.563 194.543 99.5601 191.925V62.5604C99.563 59.9421 100.607 57.4319 102.464 55.5804C104.321 53.729 106.838 52.6875 109.463 52.6846H207.435C210.06 52.6875 212.577 53.729 214.434 55.5804C216.291 57.4318 217.335 59.9421 217.338 62.5604V191.925C217.335 194.543 216.291 197.053 214.434 198.905C212.577 200.756 210.06 201.798 207.435 201.801Z" fill="#E6E6E6"/>
<path d="M170.042 193.793H116.35C113.959 193.79 111.667 192.842 109.977 191.156C108.286 189.47 107.335 187.185 107.333 184.801V69.6841C107.335 67.3 108.286 65.0144 109.977 63.3286C111.667 61.6428 113.959 60.6946 116.35 60.6919H200.548C202.938 60.6946 205.23 61.6428 206.921 63.3286C208.611 65.0144 209.562 67.3 209.565 69.6841V154.38C209.553 164.829 205.385 174.847 197.976 182.236C190.566 189.625 180.52 193.781 170.042 193.793Z" fill="white"/>
<path d="M192.148 82.7922H124.749C124.46 82.7926 124.174 82.7362 123.907 82.6263C123.64 82.5163 123.397 82.3549 123.193 82.1513C122.988 81.9477 122.826 81.7059 122.715 81.4398C122.605 81.1736 122.548 80.8883 122.548 80.6002C122.548 80.3121 122.605 80.0268 122.715 79.7606C122.826 79.4945 122.988 79.2527 123.193 79.0491C123.397 78.8455 123.64 78.6841 123.907 78.5741C124.174 78.4642 124.46 78.4078 124.749 78.4082H192.148C192.437 78.4078 192.723 78.4642 192.991 78.5741C193.258 78.6841 193.5 78.8455 193.705 79.0491C193.909 79.2527 194.071 79.4945 194.182 79.7606C194.293 80.0268 194.35 80.3121 194.35 80.6002C194.35 80.8883 194.293 81.1736 194.182 81.4398C194.071 81.7059 193.909 81.9477 193.705 82.1513C193.5 82.3549 193.258 82.5163 192.991 82.6263C192.723 82.7362 192.437 82.7926 192.148 82.7922Z" fill="#FF8B16"/>
<path d="M192.149 91.454H124.749C124.166 91.454 123.607 91.2231 123.195 90.812C122.783 90.4009 122.551 89.8433 122.551 89.2619C122.551 88.6806 122.783 88.123 123.195 87.7119C123.607 87.3008 124.166 87.0698 124.749 87.0698H192.149C192.732 87.0698 193.291 87.3008 193.703 87.7119C194.115 88.123 194.347 88.6806 194.347 89.2619C194.347 89.8433 194.115 90.4009 193.703 90.812C193.291 91.2231 192.732 91.454 192.149 91.454Z" fill="#FF8B16"/>
<path d="M153.965 100.116H124.749C124.166 100.116 123.607 99.8847 123.195 99.4736C122.783 99.0625 122.551 98.5049 122.551 97.9236C122.551 97.3422 122.783 96.7846 123.195 96.3735C123.607 95.9624 124.166 95.7314 124.749 95.7314H153.965C154.548 95.7314 155.107 95.9624 155.52 96.3735C155.932 96.7846 156.163 97.3422 156.163 97.9236C156.163 98.5049 155.932 99.0625 155.52 99.4736C155.107 99.8847 154.548 100.116 153.965 100.116Z" fill="#FF8B16"/>
<path d="M192.148 118.257H124.749C124.46 118.257 124.174 118.201 123.907 118.091C123.64 117.981 123.397 117.819 123.193 117.616C122.988 117.412 122.826 117.17 122.715 116.904C122.605 116.638 122.548 116.353 122.548 116.065C122.548 115.776 122.605 115.491 122.715 115.225C122.826 114.959 122.988 114.717 123.193 114.513C123.397 114.31 123.64 114.148 123.907 114.039C124.174 113.929 124.46 113.872 124.749 113.873H192.148C192.437 113.872 192.723 113.929 192.991 114.039C193.258 114.148 193.5 114.31 193.705 114.513C193.909 114.717 194.071 114.959 194.182 115.225C194.293 115.491 194.35 115.776 194.35 116.065C194.35 116.353 194.293 116.638 194.182 116.904C194.071 117.17 193.909 117.412 193.705 117.616C193.5 117.819 193.258 117.981 192.991 118.091C192.723 118.201 192.437 118.257 192.148 118.257Z" fill="#E4E4E4"/>
<path d="M192.149 126.918H124.749C124.166 126.918 123.607 126.687 123.195 126.276C122.783 125.865 122.551 125.308 122.551 124.726C122.551 124.145 122.783 123.587 123.195 123.176C123.607 122.765 124.166 122.534 124.749 122.534H192.149C192.732 122.534 193.291 122.765 193.703 123.176C194.115 123.587 194.347 124.145 194.347 124.726C194.347 125.308 194.115 125.865 193.703 126.276C193.291 126.687 192.732 126.918 192.149 126.918Z" fill="#E4E4E4"/>
<path d="M153.965 135.58H124.749C124.166 135.58 123.607 135.349 123.195 134.938C122.783 134.527 122.551 133.969 122.551 133.388C122.551 132.807 122.783 132.249 123.195 131.838C123.607 131.427 124.166 131.196 124.749 131.196H153.965C154.548 131.196 155.107 131.427 155.52 131.838C155.932 132.249 156.163 132.807 156.163 133.388C156.163 133.969 155.932 134.527 155.52 134.938C155.107 135.349 154.548 135.58 153.965 135.58Z" fill="#E4E4E4"/>
<path d="M192.148 153.721H124.749C124.46 153.721 124.174 153.665 123.907 153.555C123.64 153.445 123.397 153.284 123.193 153.08C122.988 152.876 122.826 152.635 122.715 152.369C122.605 152.102 122.548 151.817 122.548 151.529C122.548 151.241 122.605 150.956 122.715 150.689C122.826 150.423 122.988 150.181 123.193 149.978C123.397 149.774 123.64 149.613 123.907 149.503C124.174 149.393 124.46 149.337 124.749 149.337H192.148C192.437 149.337 192.723 149.393 192.991 149.503C193.258 149.613 193.5 149.774 193.705 149.978C193.909 150.181 194.071 150.423 194.182 150.689C194.293 150.956 194.35 151.241 194.35 151.529C194.35 151.817 194.293 152.102 194.182 152.369C194.071 152.635 193.909 152.876 193.705 153.08C193.5 153.284 193.258 153.445 192.991 153.555C192.723 153.665 192.437 153.721 192.148 153.721Z" fill="#E4E4E4"/>
<path d="M192.149 162.382H124.749C124.166 162.382 123.607 162.151 123.195 161.74C122.783 161.329 122.551 160.772 122.551 160.19C122.551 159.609 122.783 159.051 123.195 158.64C123.607 158.229 124.166 157.998 124.749 157.998H192.149C192.732 157.998 193.291 158.229 193.703 158.64C194.115 159.051 194.347 159.609 194.347 160.19C194.347 160.772 194.115 161.329 193.703 161.74C193.291 162.151 192.732 162.382 192.149 162.382Z" fill="#E4E4E4"/>
<path d="M153.965 171.044H124.749C124.167 171.043 123.609 170.812 123.197 170.401C122.785 169.99 122.554 169.433 122.554 168.852C122.554 168.271 122.785 167.714 123.197 167.303C123.609 166.892 124.167 166.66 124.749 166.66H153.965C154.548 166.66 155.106 166.892 155.518 167.303C155.929 167.714 156.16 168.271 156.16 168.852C156.16 169.433 155.929 169.99 155.518 170.401C155.106 170.812 154.548 171.043 153.965 171.044Z" fill="#E4E4E4"/>
<path d="M282.919 105.745H233.305C231.975 105.743 230.7 105.216 229.76 104.278C228.82 103.34 228.291 102.069 228.289 100.743V35.2303C228.291 33.9044 228.82 32.6331 229.76 31.6955C230.7 30.7579 231.975 30.2305 233.305 30.229H282.919C284.249 30.2305 285.524 30.7579 286.464 31.6955C287.404 32.6331 287.933 33.9044 287.935 35.2303V100.743C287.933 102.069 287.404 103.34 286.464 104.278C285.524 105.216 284.249 105.743 282.919 105.745Z" fill="#E6E6E6"/>
<path d="M264.527 101.8H236.792C235.552 101.798 234.363 101.306 233.486 100.432C232.61 99.5576 232.116 98.3721 232.115 97.1356V38.8381C232.116 37.6015 232.61 36.416 233.486 35.5416C234.363 34.6671 235.552 34.1753 236.792 34.1738H279.432C280.672 34.1752 281.861 34.6671 282.738 35.5415C283.614 36.4159 284.108 37.6015 284.109 38.8381V82.2721C284.103 87.4494 282.038 92.4129 278.367 96.0737C274.696 99.7346 269.719 101.794 264.527 101.8Z" fill="white"/>
<path d="M275.178 45.4765H241.046C240.751 45.4765 240.467 45.3595 240.259 45.1514C240.05 44.9432 239.933 44.6608 239.933 44.3664C239.933 44.072 240.05 43.7897 240.259 43.5815C240.467 43.3733 240.751 43.2563 241.046 43.2563H275.178C275.473 43.2563 275.757 43.3733 275.965 43.5815C276.174 43.7897 276.291 44.072 276.291 44.3664C276.291 44.6608 276.174 44.9432 275.965 45.1514C275.757 45.3595 275.473 45.4765 275.178 45.4765Z" fill="#E4E4E4"/>
<path d="M275.178 49.8628H241.046C240.751 49.8623 240.468 49.745 240.26 49.5369C240.052 49.3288 239.935 49.0468 239.935 48.7527C239.935 48.4587 240.052 48.1766 240.26 47.9685C240.468 47.7604 240.751 47.6432 241.046 47.6426H275.178C275.473 47.6432 275.756 47.7604 275.964 47.9685C276.172 48.1766 276.289 48.4587 276.289 48.7527C276.289 49.0468 276.172 49.3288 275.964 49.5369C275.756 49.745 275.473 49.8623 275.178 49.8628Z" fill="#E4E4E4"/>
<path d="M255.841 54.2491H241.046C240.751 54.2485 240.468 54.1313 240.26 53.9231C240.052 53.715 239.935 53.433 239.935 53.1389C239.935 52.8449 240.052 52.5629 240.26 52.3547C240.468 52.1466 240.751 52.0294 241.046 52.0288H255.841C256.136 52.0294 256.419 52.1466 256.627 52.3547C256.835 52.5629 256.952 52.8449 256.952 53.1389C256.952 53.433 256.835 53.715 256.627 53.9231C256.419 54.1313 256.136 54.2485 255.841 54.2491Z" fill="#E4E4E4"/>
<path d="M275.178 63.436H241.046C240.751 63.436 240.467 63.319 240.259 63.1108C240.05 62.9026 239.933 62.6203 239.933 62.3259C239.933 62.0315 240.05 61.7491 240.259 61.541C240.467 61.3328 240.751 61.2158 241.046 61.2158H275.178C275.473 61.2158 275.757 61.3328 275.965 61.541C276.174 61.7491 276.291 62.0315 276.291 62.3259C276.291 62.6203 276.174 62.9026 275.965 63.1108C275.757 63.319 275.473 63.436 275.178 63.436Z" fill="#FF8B16"/>
<path d="M266.212 67.8228H241.046C240.751 67.8228 240.467 67.7058 240.259 67.4976C240.05 67.2895 239.933 67.0071 239.933 66.7127C239.933 66.4182 240.05 66.1359 240.259 65.9277C240.467 65.7195 240.751 65.6025 241.046 65.6025H266.212C266.507 65.6025 266.79 65.7195 266.999 65.9277C267.208 66.1359 267.325 66.4182 267.325 66.7127C267.325 67.0071 267.208 67.2895 266.999 67.4976C266.79 67.7058 266.507 67.8228 266.212 67.8228Z" fill="#FF8B16"/>
<path d="M255.841 72.209H241.046C240.751 72.2084 240.468 72.0912 240.26 71.8831C240.052 71.675 239.935 71.3929 239.935 71.0989C239.935 70.8049 240.052 70.5228 240.26 70.3147C240.468 70.1066 240.751 69.9894 241.046 69.9888H255.841C256.136 69.9894 256.419 70.1066 256.627 70.3147C256.835 70.5228 256.952 70.8049 256.952 71.0989C256.952 71.3929 256.835 71.675 256.627 71.8831C256.419 72.0912 256.136 72.2084 255.841 72.209Z" fill="#FF8B16"/>
<path d="M275.178 81.3959H241.046C240.751 81.3959 240.467 81.279 240.259 81.0708C240.05 80.8626 239.933 80.5803 239.933 80.2858C239.933 79.9914 240.05 79.7091 240.259 79.5009C240.467 79.2927 240.751 79.1758 241.046 79.1758H275.178C275.473 79.1758 275.757 79.2927 275.965 79.5009C276.174 79.7091 276.291 79.9914 276.291 80.2858C276.291 80.5803 276.174 80.8626 275.965 81.0708C275.757 81.279 275.473 81.3959 275.178 81.3959Z" fill="#E4E4E4"/>
<path d="M275.178 85.7823H241.046C240.751 85.7823 240.467 85.6653 240.259 85.4571C240.05 85.2489 239.933 84.9666 239.933 84.6721C239.933 84.3777 240.05 84.0954 240.259 83.8872C240.467 83.679 240.751 83.562 241.046 83.562H275.178C275.474 83.562 275.757 83.679 275.965 83.8872C276.174 84.0954 276.291 84.3777 276.291 84.6721C276.291 84.9666 276.174 85.2489 275.965 85.4571C275.757 85.6653 275.474 85.7823 275.178 85.7823Z" fill="#E4E4E4"/>
<path d="M255.841 90.169H241.046C240.751 90.1684 240.468 90.0512 240.26 89.843C240.052 89.6349 239.935 89.3529 239.935 89.0589C239.935 88.7648 240.052 88.4828 240.26 88.2747C240.468 88.0665 240.751 87.9493 241.046 87.9487H255.841C256.136 87.9493 256.419 88.0665 256.627 88.2747C256.835 88.4828 256.952 88.7648 256.952 89.0589C256.952 89.3529 256.835 89.6349 256.627 89.843C256.419 90.0512 256.136 90.1684 255.841 90.169Z" fill="#E4E4E4"/>
<path d="M58.0097 128.253C58.3896 127.84 58.6743 127.35 58.8437 126.816C59.013 126.282 59.0629 125.718 58.9899 125.163C58.9169 124.608 58.7227 124.075 58.421 123.603C58.1194 123.131 57.7175 122.731 57.2439 122.43L60.3912 109.188L53.73 111.614L51.7625 123.818C51.3089 124.645 51.1752 125.609 51.3869 126.528C51.5985 127.446 52.1407 128.256 52.9108 128.802C53.6808 129.349 54.6252 129.595 55.565 129.494C56.5047 129.392 57.3746 128.951 58.0097 128.253Z" fill="#FFB8B8"/>
<path d="M74.0285 72.7593L71.3551 79.6145C71.3551 79.6145 72.5008 86.4697 70.5913 87.993C68.6818 89.5164 69.4456 89.5164 69.4456 90.6589C69.3798 91.4785 69.1418 92.275 68.747 92.9968C68.3522 93.7186 67.8095 94.3494 67.1542 94.8482C65.6265 95.9908 58.7522 119.222 58.7522 119.222H51.8779C52.1 117.452 52.1 115.661 51.8779 113.89C51.496 111.225 53.0236 104.369 53.7874 103.227C54.5513 102.084 53.7874 100.561 53.7874 98.2758C53.7874 95.9908 55.3151 94.8482 55.3151 91.0398C55.3151 87.2313 59.8979 57.5255 59.516 54.0979C59.1341 50.6703 63.3351 47.6235 63.3351 47.6235H67.1542L74.0285 72.7593Z" fill="#FF8B16"/>
<path d="M90.2033 87.2992L96.5572 115.576L55.8401 113.05L66.9121 85.2798L90.2033 87.2992Z" fill="#FFB8B8"/>
<path d="M1.45016 193.577C2.66224 197.947 4.55474 202.1 7.05855 205.885C12.6535 214.321 20.6604 220.772 29.4607 225.936C30.0704 226.298 30.6891 226.651 31.3078 227H37.4811L37.6963 226.508V226.504L37.9473 225.936L37.9787 225.869L37.9921 225.936L38.2387 227H41.2692C41.5203 226.647 41.7669 226.293 42.009 225.936C42.3631 225.413 42.7039 224.885 43.0266 224.349C43.5964 223.41 44.1055 222.437 44.5509 221.434C44.6047 221.322 44.6495 221.21 44.6944 221.099L44.4926 220.879L45.3309 217.222L43.6453 216.945L45.4923 211.263C45.4251 211.053 45.3489 210.843 45.2682 210.633C44.2326 208.017 42.2869 206.064 39.9781 204.423C37.602 202.729 34.8359 201.369 32.2941 199.957C31.1015 199.291 29.927 198.589 28.7837 197.847V197.842C27.3222 196.899 25.9041 195.89 24.5292 194.815C24.5058 194.801 24.4833 194.784 24.462 194.766C24.443 194.753 24.425 194.738 24.4082 194.722C18.2447 189.92 13.0291 184.018 9.02657 177.317L9.02484 177.317L9.02337 177.316L9.0224 177.315L9.02208 177.313C8.88762 177.098 8.76214 176.884 8.63659 176.665V176.66C6.9975 173.849 5.58678 170.911 4.41797 167.875V167.871C4.32827 167.647 4.24761 167.424 4.16243 167.2C4.04587 167.397 3.93379 167.594 3.8262 167.79L3.82447 167.791L3.823 167.792L3.82203 167.793L3.82171 167.795C-0.526918 175.551 -0.939382 184.895 1.45016 193.577Z" fill="#F0F0F0"/>
<path d="M3.82184 167.795C3.77829 171.935 4.20996 176.066 5.10844 180.107C5.5122 181.957 6.01506 183.784 6.61482 185.58C7.77909 189.093 9.3008 192.479 11.1562 195.683C11.2593 195.858 11.358 196.027 11.4655 196.197V196.202C12.2585 197.535 13.1189 198.827 14.0433 200.073C15.4424 202.059 17.1708 203.791 19.1541 205.197C20.7741 206.264 22.6061 206.97 24.5249 207.267C24.8835 207.334 25.2512 207.383 25.6233 207.428C27.1072 207.602 28.6404 207.669 30.1109 207.982C30.8557 208.129 31.5808 208.361 32.2718 208.675C34.6389 209.77 35.9704 212.064 36.5532 214.514C36.6563 214.943 36.7369 215.377 36.7997 215.81C37.2884 219.141 36.7504 222.601 37.0283 225.936C37.0597 226.289 37.1001 226.647 37.1493 227H37.4811L37.6963 226.508V226.504C37.6739 226.316 37.656 226.128 37.6381 225.936C37.5305 224.298 37.517 222.654 37.5977 221.014C37.6156 220.276 37.6291 219.534 37.6201 218.792C37.6111 218.197 37.5887 217.603 37.5439 217.013V217.008C37.5125 216.642 37.4767 216.28 37.4273 215.917C37.285 214.809 37.0111 213.721 36.6114 212.676C36.2214 211.6 35.6075 210.618 34.8102 209.795C34.0128 208.973 33.05 208.327 31.9848 207.902C31.3342 207.658 30.6637 207.471 29.9808 207.343C28.479 207.057 26.9278 206.985 25.417 206.797C25.2556 206.779 25.0942 206.757 24.9373 206.73C24.7356 206.699 24.5384 206.663 24.3411 206.627C22.3643 206.277 20.4973 205.471 18.8896 204.271C16.9791 202.763 15.318 200.965 13.9671 198.942C13.2319 197.892 12.5325 196.819 11.8825 195.714C11.8825 195.714 11.8824 195.713 11.8822 195.713C11.8819 195.712 11.8816 195.712 11.8812 195.711C11.8808 195.711 11.8803 195.711 11.8797 195.71C11.8792 195.71 11.8786 195.71 11.878 195.71C11.8466 195.656 11.8152 195.607 11.7839 195.554L11.7794 195.545C8.99107 190.793 6.95562 185.64 5.74504 180.268C5.70469 180.072 5.65983 179.875 5.61507 179.678C4.78298 175.8 4.38157 171.842 4.41807 167.876V167.871C4.41807 167.683 4.4225 167.5 4.42699 167.312C4.43596 166.928 3.83973 166.843 3.83081 167.227C3.82633 167.415 3.82185 167.603 3.82633 167.791C3.82573 167.791 3.82514 167.791 3.82459 167.791C3.82404 167.791 3.82354 167.792 3.82312 167.792C3.8227 167.792 3.82237 167.793 3.82215 167.793C3.82193 167.794 3.82183 167.795 3.82184 167.795Z" fill="white"/>
<path d="M11.7215 196.076C10.0132 196.941 8.05205 197.173 6.18834 196.729C4.32464 196.286 2.67971 195.196 1.54732 193.655C1.31927 193.342 1.79576 192.974 2.02412 193.287C3.07594 194.724 4.6083 195.739 6.34462 196.149C8.08095 196.558 9.90686 196.335 11.4928 195.52C11.8377 195.343 12.0644 195.9 11.7215 196.076Z" fill="white"/>
<path d="M24.2836 206.805C25.5319 203.103 25.3351 199.068 23.7323 195.504C23.5733 195.151 24.1309 194.923 24.2898 195.276C25.9507 198.987 26.147 203.187 24.8394 207.037C24.7146 207.404 24.1594 207.17 24.2836 206.805Z" fill="white"/>
<path d="M5.44185 179.733C6.17279 179.535 6.84311 179.16 7.39261 178.64C7.94211 178.121 8.35358 177.473 8.59007 176.756C8.71022 176.388 9.26534 176.622 9.14598 176.988C8.88099 177.779 8.42569 178.494 7.81985 179.069C7.21402 179.645 6.47608 180.063 5.67052 180.289C5.59638 180.316 5.51448 180.315 5.44147 180.284C5.36846 180.254 5.30981 180.197 5.27745 180.125C5.24754 180.051 5.24804 179.969 5.27882 179.895C5.30961 179.822 5.36819 179.763 5.44185 179.733Z" fill="white"/>
<path d="M28.7837 197.842V197.847C28.9227 201.039 29.323 204.215 29.9806 207.342V207.347C30.0165 207.561 30.0658 207.772 30.1106 207.982C31.1927 212.818 32.7096 217.548 34.6431 222.113C35.1766 223.401 35.7355 224.675 36.3198 225.936C36.4812 226.294 36.6471 226.647 36.8174 227H37.4809L37.6961 226.508V226.504L37.9472 225.936L37.9786 225.869L37.992 225.936L38.2386 227H44.6494L45.8957 225.936L47.7114 224.385L45.174 221.622L44.757 221.166L44.6943 221.099L44.4925 220.88L45.3308 217.223L43.6452 216.945L45.4923 211.263L46.3665 208.576L46.5861 207.901L47.8639 203.971L51.7193 204.691L52.347 202.501C51.1914 199.829 50.2295 197.079 49.4688 194.27C49.4644 194.248 49.4554 194.23 49.4509 194.208C47.414 186.642 46.8029 178.766 47.6487 170.978V170.973C47.6756 170.723 47.707 170.468 47.7429 170.222V170.214C48.1271 166.986 48.7749 163.795 49.6796 160.673C49.7423 160.436 49.8141 160.204 49.8814 159.971C49.6751 160.061 49.4734 160.146 49.2671 160.235L49.2626 160.239H49.2537C48.9264 160.382 48.5991 160.534 48.2809 160.695C40.6326 164.402 35.0063 171.358 31.8098 179.378C31.8009 179.401 31.7919 179.419 31.7829 179.441C30.115 183.645 29.1211 188.085 28.8375 192.598C28.73 194.344 28.712 196.094 28.7837 197.842Z" fill="#F0F0F0"/>
<path d="M40.4175 227H41.1258C41.35 226.638 41.5921 226.285 41.8342 225.936C42.2197 225.395 42.6172 224.866 43.0267 224.349C43.3809 223.902 43.735 223.459 44.0892 223.017C44.4568 222.556 44.8199 222.096 45.1741 221.622L44.7572 221.166C44.6899 221.255 44.6227 221.345 44.5509 221.434C43.4033 222.941 42.1615 224.389 41.0989 225.936C40.8613 226.285 40.6327 226.638 40.4175 227Z" fill="white"/>
<path d="M50.0303 160.221C49.9137 160.369 49.7927 160.521 49.6806 160.673C48.8064 161.804 47.98 162.971 47.2014 164.173C45.8148 166.295 44.5832 168.514 43.5163 170.812C43.4311 170.991 43.3459 171.174 43.2652 171.358C40.982 176.38 39.4939 181.725 38.8538 187.202C38.8449 187.255 38.8404 187.305 38.8359 187.358C38.688 188.637 38.5923 189.92 38.549 191.208C38.406 193.632 38.6466 196.064 39.2618 198.414C39.3515 198.723 39.4501 199.027 39.5577 199.322C39.8274 200.045 40.1651 200.741 40.5664 201.401C40.8547 201.882 41.1752 202.344 41.5258 202.782C41.7365 203.05 41.9561 203.314 42.1893 203.569C42.3238 203.716 42.4627 203.864 42.6017 204.012C42.7183 204.123 42.8304 204.24 42.9469 204.351C44.1574 205.523 45.4933 206.609 46.5872 207.901L46.3675 208.576C45.314 207.244 43.9556 206.14 42.7317 204.977C41.9634 204.257 41.264 203.466 40.6426 202.617C40.5619 202.5 40.4767 202.384 40.4005 202.263C39.9851 201.658 39.6265 201.016 39.329 200.346C39.1766 200.01 39.0376 199.666 38.9121 199.308C38.1797 196.997 37.8462 194.578 37.9258 192.155C37.9402 190.603 38.033 189.053 38.2038 187.51C38.2217 187.309 38.2441 187.112 38.271 186.911C38.7256 183.239 39.5548 179.623 40.7457 176.119C42.253 171.674 44.3262 167.44 46.9145 163.521C47.6542 162.399 48.4388 161.303 49.2681 160.235C49.3757 160.087 49.4878 159.944 49.6044 159.797C49.8419 159.493 50.2679 159.917 50.0303 160.221Z" fill="white"/>
<path d="M38.4842 187.566C36.5978 187.232 34.8922 186.239 33.6719 184.766C32.4516 183.293 31.7961 181.435 31.8225 179.525C31.8243 179.447 31.8564 179.373 31.912 179.318C31.9675 179.263 32.0422 179.232 32.1203 179.231C32.1985 179.23 32.2739 179.259 32.3308 179.313C32.3877 179.366 32.4215 179.44 32.4252 179.517C32.3973 181.296 33.0081 183.027 34.1472 184.396C35.2863 185.766 36.8789 186.684 38.6373 186.985C39.0193 187.051 38.8641 187.632 38.4842 187.566Z" fill="white"/>
<path d="M42.0366 203.675C45.2685 201.469 47.5477 198.129 48.4197 194.321C48.5058 193.944 49.0885 194.097 49.0026 194.473C48.0877 198.434 45.7087 201.906 42.3404 204.194C42.0192 204.412 41.7172 203.892 42.0366 203.675Z" fill="white"/>
<path d="M43.3374 170.747C44.0403 171.029 44.8021 171.131 45.5546 171.046C46.3071 170.961 47.0266 170.691 47.6486 170.26C47.9668 170.039 48.2686 170.559 47.9524 170.779C47.263 171.252 46.468 171.549 45.6369 171.645C44.8057 171.741 43.9637 171.632 43.1844 171.329C43.1085 171.306 43.0441 171.256 43.0042 171.187C42.9643 171.119 42.9519 171.039 42.9695 170.962C42.9902 170.885 43.0404 170.819 43.1093 170.779C43.1782 170.739 43.2602 170.728 43.3374 170.747Z" fill="white"/>
<path d="M83.423 217.808L87.9967 217.807L90.1728 200.215H83.4221L83.423 217.808Z" fill="#FFB8B8"/>
<path d="M81.8741 215.557L89.1043 215.127V218.216L95.9782 222.95C96.3178 223.184 96.5735 223.52 96.708 223.909C96.8426 224.298 96.8489 224.72 96.7261 225.112C96.6033 225.505 96.3578 225.849 96.0255 226.092C95.6931 226.336 95.2913 226.468 94.8787 226.468H86.2709L84.7872 223.412L84.2079 226.468H80.9624L81.8741 215.557Z" fill="#2F2E41"/>
<path d="M40.1943 215.539L44.6645 216.505L50.5306 199.772L43.9337 198.346L40.1943 215.539Z" fill="#FFB8B8"/>
<path d="M39.1592 213.012L46.3165 214.12L45.6598 217.139L51.371 223.219C51.6531 223.519 51.8316 223.902 51.8804 224.31C51.9292 224.719 51.8457 225.132 51.6422 225.49C51.4387 225.848 51.1258 226.132 50.7492 226.3C50.3725 226.468 49.9519 226.511 49.5487 226.424L41.1366 224.604L40.3362 221.304L39.1205 224.168L35.9487 223.482L39.1592 213.012Z" fill="#2F2E41"/>
<path d="M7.98194 226.468C7.98173 226.538 7.99538 226.607 8.02212 226.672C8.04886 226.737 8.08815 226.795 8.13773 226.845C8.18732 226.894 8.24622 226.933 8.31104 226.96C8.37587 226.987 8.44534 227 8.51546 227H134.173C134.315 227 134.45 226.944 134.55 226.844C134.65 226.744 134.707 226.609 134.707 226.468C134.707 226.327 134.65 226.192 134.55 226.092C134.45 225.992 134.315 225.936 134.173 225.936H8.51546C8.44534 225.936 8.37587 225.949 8.31104 225.976C8.24622 226.003 8.18732 226.042 8.13774 226.091C8.08816 226.141 8.04886 226.2 8.02213 226.264C7.99539 226.329 7.98173 226.398 7.98194 226.468Z" fill="#CCCCCC"/>
<path d="M97.5967 139.222C94.3868 156.814 93.5843 164.409 93.5843 164.409C93.5843 164.409 95.9917 167.208 94.3868 168.809C92.7818 170.409 94.3868 173.606 94.3868 173.606L90.1853 207.063L89.2887 211.981L80.8746 210.797L82.1157 206.169L79.9556 174.008C79.9556 174.008 78.3506 170.807 79.1531 170.007C79.9556 169.206 78.3506 164.409 78.3506 164.409L76.3467 126.427L63.915 168.008C63.915 168.008 65.1209 169.609 63.915 170.807C62.7135 172.005 60.3105 178.005 60.3105 178.005L51.1821 202.146L49.3888 205.722L48.4347 205.271L44.2385 204.484L43.4674 204.341L42.0956 204.082L41.2124 203.917L40.912 203.863L39.4595 203.59L39.8988 201.646L43.1124 196.781L46.3814 172.922L46.5249 172.282L46.6773 171.607C46.6773 171.607 45.8748 169.609 47.0763 168.406C47.4278 168.04 47.6845 167.593 47.8243 167.106C47.9641 166.618 47.9828 166.104 47.8787 165.608C47.8394 165.566 47.8034 165.521 47.7712 165.473C47.6292 165.279 47.5313 165.056 47.4842 164.821C47.3766 164.32 47.4708 163.618 48.2822 162.809C48.5107 162.567 48.7026 162.293 48.8516 161.995C50.071 159.693 50.6852 154.815 50.6852 154.815C50.6852 154.815 51.7701 116.184 55.3207 110.283C55.509 109.975 59.2783 104.053 59.4756 103.932C63.4835 101.536 94.7639 104.398 94.7639 104.398C94.7639 104.398 96.6552 109.465 96.7404 109.992C97.2022 112.957 100.318 124.299 97.5967 139.222Z" fill="#2F2E41"/>
<path d="M130.057 53.3345C129.986 53.89 129.795 54.4233 129.495 54.8969C129.196 55.3705 128.796 55.7728 128.324 56.0756C127.851 56.3784 127.318 56.5743 126.762 56.6494C126.206 56.7245 125.639 56.6771 125.103 56.5104L116.994 67.4569L114.552 60.8173L122.627 51.4403C122.967 50.5609 123.62 49.8366 124.46 49.4047C125.3 48.9727 126.27 48.8631 127.186 49.0966C128.101 49.3301 128.899 49.8904 129.429 50.6715C129.958 51.4526 130.181 52.4001 130.057 53.3345Z" fill="#FFB8B8"/>
<path d="M56.0661 99.7022C55.3227 99.7022 54.9004 99.5568 54.7369 99.2451C54.497 98.7875 54.9134 98.1898 55.3954 97.4974C55.753 97.0454 56.0351 96.5386 56.2307 95.9969C56.519 94.8469 58.4648 65.7989 57.3009 59.9949C57.0317 58.652 57.2635 56.9305 57.9896 54.8785C59.9731 49.2745 62.6805 47.5521 68.074 44.1214C68.5118 43.8429 68.9677 43.552 69.4417 43.2487C70.0549 42.8557 70.0207 41.5529 69.9846 40.1733C69.9445 38.64 69.9029 37.0544 70.6562 36.0633L70.7052 35.9987L70.7842 35.9803C72.6062 35.5604 78.7339 34.7806 82.3629 35.986L82.413 36.0031L82.4504 36.0402C83.3125 36.8998 83.3911 38.5649 83.467 40.1751C83.5292 41.4971 83.5881 42.7453 84.0758 43.2875C87.8043 47.432 92.0331 47.3513 92.076 47.3504L92.2855 47.3443L92.3063 47.5521C93.9282 64.0032 96.5427 88.8333 97.0983 89.8104C97.1274 89.8551 97.1436 89.9069 97.1452 89.9602C97.1468 90.0134 97.1338 90.0661 97.1075 90.1125C96.2919 91.6323 58.868 99.7022 56.0661 99.7022Z" fill="#FF8B16"/>
<path d="M80.42 31.3235C86.5276 31.3235 91.4787 26.3861 91.4787 20.2955C91.4787 14.205 86.5276 9.26758 80.42 9.26758C74.3125 9.26758 69.3613 14.205 69.3613 20.2955C69.3613 26.3861 74.3125 31.3235 80.42 31.3235Z" fill="#FFB8B8"/>
<path d="M87.8085 40.4543C87.2843 39.7078 84.6255 30.5887 83.4605 27.7896C83.3414 28.3911 82.0054 30.7234 81.9741 31.3441L81.9625 31.574L81.7336 31.6036C81.3892 31.6474 73.2557 32.6319 69.0228 27.8455C66.515 25.0104 65.9463 20.7578 67.3302 15.2035C67.0785 15.1542 66.8373 15.0616 66.6175 14.9297C66.2514 14.6771 65.9451 14.3479 65.7198 13.965C65.4944 13.5822 65.3556 13.1549 65.3128 12.7131L65.0785 12.7757C63.885 13.0968 62.5388 13.5217 61.6692 14.5024C60.7011 15.5931 60.5288 17.0751 60.346 18.6439C60.2748 19.3929 60.1564 20.1367 59.9913 20.8708C59.4016 23.2434 57.7413 25.4657 55.0566 27.476C52.3537 29.5001 49.5981 30.6581 46.8659 30.917C43.6388 31.2241 40.5267 30.1668 38.5436 28.091C36.3321 25.7768 35.7537 22.2161 37.1678 19.6249L37.3954 19.2075L37.6453 19.612C38.9041 21.6493 41.6547 22.7496 44.3348 22.2871C46.6329 21.8907 48.911 20.4357 50.7495 18.19C52.4279 16.1401 53.5856 13.719 54.7052 11.3776C55.844 8.99696 57.0213 6.53507 58.7172 4.44617C60.6302 2.08997 63.0175 0.551247 65.4396 0.112924C67.2035 -0.20494 68.7775 0.155401 69.7585 1.1036C70.4517 1.8161 70.8622 2.7551 70.914 3.74646C71.5173 3.61202 72.1463 3.64807 72.7302 3.85053C73.2933 4.07901 73.784 4.45516 74.1501 4.93915C74.5163 5.42313 74.7443 5.99689 74.8101 6.59961C78.3639 4.73552 83.0674 5.03885 85.5 6.43746C86.5185 7.02315 87.1034 7.76078 87.2072 8.58364C90.0804 8.74364 93.1707 11.5347 93.1707 15.489V15.7644H92.8946C90.6206 15.7644 88.5444 17.0686 87.3409 19.253C86.6344 20.526 86.2847 21.9653 86.3286 23.4197C86.3725 24.874 86.8085 26.2897 87.5907 27.518C88.442 28.8208 89.0232 30.2803 89.3002 31.8106C89.5771 33.3409 89.5441 34.911 89.2032 36.4284L88.1656 40.9625L87.8085 40.4543Z" fill="#2F2E41"/>
<path d="M100.503 81.698L93.2137 77.6089C80.502 68.8226 77.3708 61.845 76.9794 57.5367C76.5617 52.9399 79.0176 50.4256 79.1225 50.3212L79.1791 50.2798L85.7504 46.9316C86.5851 46.5063 87.5009 46.2628 88.4371 46.2173C89.3733 46.1718 90.3086 46.3252 91.1808 46.6675C92.053 47.0097 92.8423 47.5329 93.4964 48.2024C94.1505 48.8719 94.6544 49.6724 94.9747 50.5509L101.053 67.2211L107.792 62.2646L110.666 61.1351L112.985 58.0427L119.354 54.3383L124.086 58.585L118.135 70.4523L114.829 71.2919L114.128 73.0928L114.066 73.1325L100.503 81.698Z" fill="#FF8B16"/>
</g>
<defs>
<clipPath id="clip0_2005_988">
<rect width="352" height="227" fill="white"/>
</clipPath>
</defs>
</svg>
