<svg width="648" height="493" viewBox="0 0 648 493" fill="none" xmlns="http://www.w3.org/2000/svg">
<g clip-path="url(#clip0_56_1006)">
<path d="M599.551 448.11C578.32 464.299 552.453 480.698 527.022 488.431C519.691 490.726 512.126 492.191 504.469 492.799C497.31 493.375 490.105 492.816 483.121 491.141C464.767 486.57 447.743 478.565 431.271 469.213C425.89 466.152 420.57 462.952 415.282 459.681C406.649 454.339 398.102 448.811 389.532 443.414C388.249 442.597 386.973 441.795 385.69 441H385.682C383.614 439.7 381.54 438.418 379.461 437.154C379.095 436.928 378.73 436.71 378.356 436.484C374.429 434.101 370.434 431.773 366.372 429.499C365.874 429.227 365.377 428.946 364.879 428.674C357.019 424.309 348.941 420.35 340.677 416.814C335.248 414.525 329.75 412.461 324.197 410.701H324.189C322.066 410.032 319.935 409.401 317.797 408.825C311.384 407.063 304.848 405.782 298.245 404.994C289.146 403.891 279.943 403.964 270.862 405.212C270.248 405.297 269.641 405.383 269.027 405.484C244.451 409.424 222.023 422.709 197.338 425.839C196.537 425.94 195.744 426.034 194.943 426.104C194.601 426.135 194.258 426.174 193.916 426.197C186.743 426.812 179.524 426.634 172.389 425.668C152.457 423.036 133.045 414.867 115.57 404.573C74.7177 380.504 41.5875 343.508 21.445 300.664C17.9861 293.321 14.9151 285.802 12.2448 278.136C4.77873 256.88 0.667175 234.588 0.0581047 212.064C-1.83172 133.914 42.5207 55.5071 112.156 20.1621C181.8 -15.1829 273.413 -3.49463 329.579 50.8038C363.65 83.7426 383.365 128.377 409.006 168.254C434.647 208.124 471.09 246.21 518.094 252.019C542.04 254.978 567.097 249.254 590.047 256.699C602.755 260.826 613.596 268.722 622.33 278.783C628.202 285.61 633.115 293.207 636.935 301.365C639.735 307.262 642.007 313.396 643.725 319.695C644.044 320.855 644.339 322.016 644.627 323.176C656.059 369.929 637.791 418.94 599.551 448.11Z" fill="#F2F2F2"/>
<path d="M217.108 363.474H144.003C133.051 363.474 124.172 372.364 124.172 383.33V383.33C124.172 394.297 133.051 403.187 144.003 403.187H217.108C228.06 403.187 236.939 394.297 236.939 383.33C236.939 372.364 228.06 363.474 217.108 363.474Z" fill="#3F3D56"/>
<path d="M194.943 393.064V426.104C187.433 426.832 179.865 426.685 172.389 425.668V393.064H194.943Z" fill="#3F3D56"/>
<path d="M270.862 405.212C270.248 405.297 269.641 405.383 269.027 405.484C244.452 409.424 222.023 422.709 197.338 425.839C196.537 425.94 195.744 426.034 194.943 426.104C194.601 426.135 194.259 426.174 193.916 426.197C187.889 420.287 181.862 413.995 176.2 407.478C173.128 403.95 170.158 400.353 167.366 396.708C160.117 387.302 153.973 377.63 149.914 368.13C150.326 363.575 147.495 353.039 146.142 344.972L146.134 344.964C145.559 341.577 145.248 338.633 145.535 336.741C147.184 325.824 156.089 327.077 158.826 316.378C161.296 314.326 163.925 312.474 166.689 310.841C167.148 310.569 167.614 310.296 168.097 310.024L197.805 289.466L209.159 300.617L226.44 317.593L245.167 335.978L229.271 352.058C229.271 352.058 242.554 367.39 258.085 387.831C262.253 393.321 266.585 399.185 270.862 405.212Z" fill="#2F2E41"/>
<path d="M527.022 393.064V488.431C519.691 490.726 512.126 492.192 504.469 492.799V393.064H527.022Z" fill="#3F3D56"/>
<path d="M556.186 385.277H483.082C472.13 385.277 463.251 394.167 463.251 405.134V405.134C463.251 416.1 472.13 424.99 483.082 424.99H556.186C567.139 424.99 576.018 416.1 576.018 405.134C576.018 394.167 567.139 385.277 556.186 385.277Z" fill="#3F3D56"/>
<path d="M378.357 436.484C374.429 434.101 370.434 431.773 366.372 429.499C365.874 429.226 365.377 428.946 364.879 428.673L367.554 427.529L374.771 424.422L374.841 424.391L374.919 424.655L378.357 436.484Z" fill="#FFB6B6"/>
<path d="M389.532 443.414C388.249 442.597 386.974 441.795 385.69 441H385.683C383.614 439.7 381.54 438.418 379.461 437.154C379.095 436.928 378.73 436.71 378.357 436.484C374.429 434.101 370.434 431.773 366.372 429.499C365.874 429.227 365.377 428.946 364.879 428.674C357.02 424.309 348.942 420.35 340.677 416.814C335.248 414.525 329.75 412.461 324.197 410.701H324.19L319.827 403.389L300.19 370.458L295.873 363.224C295.873 363.224 281.151 367.585 260.317 371.767C252.734 373.293 244.35 374.788 235.555 376.049C226.152 377.389 216.291 378.456 206.492 378.97C201.818 379.219 197.159 379.343 192.571 379.304C180.711 379.227 169.318 378.113 159.34 375.465C156.011 372.335 145.979 368.076 138.793 364.174H138.785C135.767 362.539 133.263 360.974 131.949 359.58C124.374 351.559 130.845 345.307 124.11 336.554C124.019 333.343 124.183 330.13 124.6 326.945C124.67 326.415 124.74 325.878 124.825 325.333L126.948 289.233L142.72 287.146L166.72 283.969L192.719 280.527L195.581 302.969C195.581 302.969 215.824 301.941 241.473 302.284C282.668 302.844 337.792 306.956 345.258 324.601C345.957 326.26 346.657 327.934 347.357 329.608C349.022 333.611 350.67 337.634 352.304 341.678C358.222 356.317 363.868 371.097 369.024 385.067C372.228 393.757 375.246 402.136 378.022 409.977C380.254 416.285 382.323 422.249 384.213 427.739C385.939 432.754 387.502 437.372 388.894 441.514C389.112 442.161 389.322 442.799 389.532 443.414Z" fill="#2F2E41"/>
<path d="M244.447 224.688L194.631 182.326L227.042 149.483L249.654 186.567L333.47 203.206C335.99 201.306 339.008 200.183 342.155 199.971C345.302 199.759 348.443 200.469 351.194 202.014C353.945 203.559 356.188 205.872 357.649 208.671C359.11 211.47 359.726 214.634 359.422 217.777C359.119 220.921 357.908 223.908 355.938 226.374C353.967 228.841 351.323 230.68 348.327 231.668C345.331 232.656 342.113 232.749 339.065 231.937C336.017 231.125 333.27 229.442 331.16 227.095L244.447 224.688Z" fill="#FFDBE1"/>
<path d="M150.605 126.652C144.848 145.405 199.678 190.132 199.678 190.132C200.287 185.629 231.374 224.451 233.489 220.935C239.5 210.943 246.114 186.243 253.053 183.086C257.022 181.281 234.256 156.187 234.256 156.187C234.256 156.187 222.642 140.803 207.309 121.306C203.076 115.714 197.499 111.284 191.097 108.43C184.694 105.576 177.675 104.391 170.692 104.984C170.692 104.984 156.362 107.899 150.605 126.652Z" fill="#3F3D56"/>
<path d="M174.848 85.137C193.456 85.137 208.541 70.0328 208.541 51.4008C208.541 32.7688 193.456 17.6646 174.848 17.6646C156.239 17.6646 141.154 32.7688 141.154 51.4008C141.154 70.0328 156.239 85.137 174.848 85.137Z" fill="#FFDBE1"/>
<path d="M191.694 107.434C198.953 111.755 203.295 119.694 205.788 127.773C210.402 142.729 213.18 158.193 214.059 173.823L216.692 220.614L249.299 320.246C221.04 344.188 114.819 325.687 114.819 325.687C114.819 325.687 111.558 324.599 114.819 321.334C118.079 318.069 121.254 320.962 117.993 317.697C114.733 314.432 116.98 318.069 118.067 314.805C119.154 311.54 118.067 313.716 116.98 312.628C115.893 311.54 125.394 301.745 125.394 301.745L116.699 244.556L105.831 129.2C118.873 112.876 145.103 103.253 145.103 103.253L151.881 91.0376L185.769 93.7521L191.694 107.434Z" fill="#3F3D56"/>
<path d="M202.622 33.4777C205.241 35.4333 207.181 38.1621 208.169 41.2798C208.549 36.1848 208.573 31.0695 208.241 25.9711C207.844 22.3884 205.325 21.5826 202.408 20.6488C199.774 19.8052 196.795 18.8522 195.994 15.3743C185.402 5.05777 166.965 5.57798 154.347 9.17653C147.404 11.1568 143.409 13.7009 143.052 15.1913L142.978 15.4981L142.696 15.6393C137.344 18.3187 136.302 26.7796 136.371 33.4054C136.501 45.889 140.806 60.0672 143.231 61.2189C143.359 61.2799 143.392 61.256 143.447 61.2097C147.099 58.2877 151.554 61.4317 153.512 63.1408C154.667 55.3821 158.385 48.2346 164.072 42.8398C169.76 37.4451 177.089 34.1144 184.889 33.3796C187.437 33.1331 189.964 32.7088 192.452 32.1099C193.714 31.783 195.011 31.6125 196.315 31.6023C198.559 31.5681 200.76 32.2226 202.622 33.4777Z" fill="#2F2E41"/>
<path d="M160.167 275.516L149.861 270.231C149.308 269.837 148.916 269.257 148.755 268.597C148.595 267.938 148.677 267.242 148.986 266.638C149.295 266.033 149.811 265.561 150.439 265.306C151.067 265.051 151.767 265.031 152.409 265.249L162.715 270.534C163.268 270.928 163.66 271.508 163.82 272.168C163.981 272.827 163.899 273.523 163.59 274.127C163.281 274.731 162.765 275.204 162.137 275.459C161.508 275.714 160.809 275.734 160.167 275.516Z" fill="#FF8B16"/>
<path d="M125.479 261.356L108.525 198.155L153.833 189.567L151.396 232.948L210.927 294.323C214.079 294.194 217.2 294.986 219.909 296.603C222.619 298.219 224.801 300.59 226.188 303.426C227.576 306.262 228.109 309.442 227.723 312.576C227.337 315.711 226.048 318.665 224.014 321.079C221.981 323.493 219.289 325.262 216.268 326.171C213.247 327.08 210.028 327.089 207.002 326.197C203.976 325.306 201.275 323.552 199.227 321.149C197.179 318.747 195.874 315.8 195.471 312.668L125.479 261.356Z" fill="#FFDBE1"/>
<path d="M103.888 127.295C88.5091 139.451 108.248 207.45 108.248 207.45C111.304 204.091 114.856 253.724 118.591 252.034C129.208 247.231 148.667 230.668 156.169 232.018C160.459 232.79 155.964 199.189 155.964 199.189C155.964 199.189 155.138 179.922 153.584 155.155C153.274 148.144 151.198 141.327 147.549 135.336C143.9 129.345 138.797 124.376 132.714 120.891C132.714 120.891 119.267 115.138 103.888 127.295Z" fill="#3F3D56"/>
<path d="M636.935 301.365L21.4451 300.664C17.9862 293.321 14.9152 285.802 12.2449 278.136L622.33 278.783C628.202 285.61 633.116 293.207 636.935 301.365Z" fill="#3F3D56"/>
<path d="M440.899 464.75C437.719 466.292 434.509 467.78 431.272 469.212C425.89 466.152 420.57 462.952 415.282 459.681L434.896 451.053L440.899 464.75Z" fill="#FFB6B6"/>
<path d="M583.904 357.446C580.715 361.729 577.425 365.926 574.035 370.038C570.908 373.83 567.699 377.55 564.407 381.197C563.046 382.707 561.669 384.21 560.262 385.697C557.672 388.477 555.025 391.211 552.321 393.897C547.453 395.431 537.591 398.133 527.022 400.656C519.331 402.486 511.266 404.223 504.469 405.328C500.664 406.012 496.815 406.423 492.951 406.559C488.363 406.598 483.704 406.473 479.03 406.224C473.758 405.943 468.477 405.507 463.259 404.947C449.688 403.522 436.544 401.302 425.206 399.021C421.053 398.195 417.148 397.354 413.555 396.537C406.751 395.003 401.058 393.57 396.936 392.48C392.293 391.265 389.649 390.479 389.649 390.479L378.022 409.977L371.987 420.092L367.554 427.529L366.372 429.499C365.875 429.226 365.377 428.946 364.879 428.674C357.02 424.308 348.942 420.35 340.677 416.814C335.249 414.525 329.75 412.461 324.197 410.701H324.19C322.066 410.032 319.936 409.401 317.797 408.825C318.466 407.026 319.142 405.214 319.827 403.389C321.102 399.986 322.403 396.552 323.731 393.087C326.601 385.581 329.571 377.965 332.628 370.388C335.132 364.166 337.683 357.968 340.265 351.855C341.455 349.036 343.873 346.56 347.256 344.388C348.873 343.367 350.56 342.461 352.304 341.678C361.986 337.262 376.249 334.389 391.967 332.544C393.265 332.396 394.572 332.248 395.886 332.108C408.897 330.737 422.701 330.028 435.611 329.701C442.074 329.538 448.311 329.476 454.113 329.468C455.987 329.468 457.81 329.473 459.58 329.483H459.588C464.371 329.507 468.773 329.577 472.646 329.655C473.4 329.67 474.131 329.694 474.846 329.709H474.854C475.336 329.717 475.811 329.732 476.277 329.74C484.747 329.958 489.942 330.223 489.942 330.223L491.956 314.4L492.368 311.207L492.757 308.17V308.163L492.804 307.781L493.123 307.773L498.722 307.664L545.789 306.745L571.499 306.239L567.424 323.729L560.697 352.587C561.381 357.15 584.137 353.576 583.904 357.446Z" fill="#2F2E41"/>
<path d="M446.701 461.869C444.78 462.851 442.844 463.816 440.9 464.751C437.719 466.292 434.509 467.78 431.272 469.213C425.89 466.152 420.57 462.952 415.282 459.681C406.649 454.34 398.102 448.811 389.532 443.414C388.249 442.597 386.974 441.795 385.69 441H385.683C382.152 435.752 378.551 430.286 374.919 424.656C374.865 424.578 374.818 424.5 374.771 424.422C373.838 422.989 372.91 421.546 371.987 420.092C366.178 410.982 360.337 401.482 354.668 391.779L369.024 385.067L395.715 372.592L400.319 370.443L413.555 396.537L425.361 419.812L427.99 424.99L446.701 461.869Z" fill="#2F2E41"/>
<path d="M450.724 336.591L518.773 270.882L537.634 217.409L509.814 205.296C495.524 219.002 480.077 261.692 480.077 261.692L433.249 321.344C432.884 321.469 432.52 321.602 432.161 321.761C430.052 322.692 428.218 324.152 426.838 326C425.457 327.849 424.575 330.022 424.279 332.311C423.982 334.6 424.28 336.927 425.144 339.066C426.008 341.206 427.408 343.087 429.21 344.526C431.012 345.966 433.154 346.916 435.43 347.284C437.705 347.652 440.037 347.426 442.2 346.629C444.363 345.831 446.284 344.488 447.777 342.729C449.27 340.971 450.285 338.857 450.724 336.591Z" fill="#FFB8B8"/>
<path d="M501.986 211.266L537.274 222.484L537.407 222.461C550.542 220.258 561.44 198.779 568.27 181.149C570.517 175.333 570.475 168.88 568.153 163.095C565.83 157.309 561.4 152.622 555.759 149.982C551.584 148.062 546.956 147.35 542.398 147.925C537.84 148.501 533.534 150.342 529.966 153.24L511.845 168.066L501.986 211.266Z" fill="#FF8B16"/>
<path d="M583.762 358.235L583.968 357.961C594.978 343.34 579.92 307.133 577.643 301.881L587.881 298.845L586.096 279.328L585.237 270.625L593.196 263.057L593.223 262.863L598.697 223.857L605.86 198.04C608.56 188.28 608.617 177.977 606.025 168.187C603.434 158.398 598.287 149.476 591.114 142.336L576.472 127.78L558.93 100.287L529.518 99.5269L518.941 118.339C509.105 120.349 500.285 125.75 494.018 133.602C487.75 141.453 484.432 151.257 484.642 161.307L485.638 211.389L475.084 273.441L474.788 284.712L464.43 295.657L466.345 306.722L458.596 309.812L454.805 325.535C453.357 327.349 443.795 339.451 443.708 342.824C443.695 343.331 444.056 343.83 444.843 344.394C451.032 348.827 485.624 358.434 501.193 352.659C517.776 346.512 582.77 358.057 583.424 358.174L583.762 358.235Z" fill="#FF8B16"/>
<path d="M541.655 91.0988C563.175 91.0988 580.62 73.631 580.62 52.0833C580.62 30.5357 563.175 13.0679 541.655 13.0679C520.135 13.0679 502.689 30.5357 502.689 52.0833C502.689 73.631 520.135 91.0988 541.655 91.0988Z" fill="#FFB8B8"/>
<path d="M536.901 91.6206C542.935 91.7149 548.966 91.2928 554.929 90.3592C560.839 89.1558 574.06 79.4549 577.746 73.6174C580.484 69.2801 582.235 62.5072 583.222 57.5895C584.551 51.0818 584.5 44.3671 583.073 37.8803C581.646 31.3935 578.874 25.2792 574.936 19.9332C573.423 17.6972 571.334 15.9122 568.891 14.7671C568.675 14.6823 568.452 14.6072 568.227 14.5429C564.666 13.605 561.467 11.6231 559.04 8.85154C558.57 8.29096 558.06 7.76505 557.513 7.27789C554.77 4.96002 551.518 3.32505 548.023 2.50661C542.382 0.994845 534.217 2.49547 523.757 6.97114C518.502 9.2198 512.755 8.406 508.334 7.44571C508.086 7.39775 507.83 7.41564 507.591 7.49761C507.352 7.57958 507.138 7.72277 506.972 7.91293C505.091 9.68113 502.611 10.6709 500.031 10.6833C498.451 10.7528 496.793 12.9436 494.789 15.8006C494.334 16.4492 493.803 17.2061 493.42 17.6665L493.369 16.782L492.475 17.7687C491.07 19.3195 490.08 21.2011 489.597 23.2382C489.113 25.2754 489.153 27.4019 489.711 29.4198C490.27 31.4376 491.329 33.2811 492.79 34.7787C494.252 36.2762 496.068 37.379 498.07 37.9845C499.66 38.4079 501.289 38.6678 502.931 38.76C503.926 38.8497 504.955 38.9424 505.941 39.1137C509.106 39.7626 512.049 41.2222 514.482 43.35C516.916 45.4777 518.757 48.2009 519.825 51.2537C520.078 51.9593 520.489 52.5974 521.027 53.1186C521.565 53.6398 522.216 54.0303 522.928 54.2598C523.641 54.4894 524.397 54.5519 525.138 54.4425C525.878 54.3331 526.584 54.0547 527.2 53.6289C528.227 52.828 529.433 52.2877 530.714 52.0541C531.995 51.8206 533.313 51.9007 534.556 52.2877C535.631 52.8859 536.467 53.8358 536.925 54.9781C537.482 56.2507 538.405 57.3285 539.575 58.0739C543.58 60.1414 543.856 69.3004 542.418 76.9356C541.032 84.2952 538.291 89.6193 535.753 89.8825C533.799 90.0848 533.576 90.2238 533.435 90.5697L533.308 90.8794L533.528 91.1691C534.607 91.5607 535.757 91.7148 536.901 91.6206Z" fill="#2F2E41"/>
<path d="M511.662 199.471L496.638 169.479C474.83 170.971 431.548 196.217 431.548 196.217L349.657 213.602C347.231 212.668 344.602 212.391 342.035 212.798C339.468 213.205 337.053 214.282 335.034 215.92C333.015 217.558 331.462 219.701 330.533 222.131C329.603 224.561 329.329 227.193 329.738 229.763C330.148 232.333 331.226 234.749 332.865 236.769C334.504 238.789 336.645 240.341 339.073 241.269C341.501 242.197 344.131 242.468 346.697 242.055C349.263 241.642 351.675 240.559 353.69 238.916L457.861 231.44L511.662 199.471Z" fill="#FFB8B8"/>
<path d="M505.602 204.395L544.84 175.199L551.752 150.259C553.091 145.358 553.034 140.18 551.588 135.31C550.142 130.439 547.365 126.071 543.57 122.698C538.394 118.161 531.691 115.76 524.815 115.982C517.94 116.205 511.405 119.032 506.532 123.894C491.766 138.652 474.925 159.239 478.543 173.515L478.579 173.66L505.602 204.395Z" fill="#FF8B16"/>
<path d="M457.029 282.489H352.039V296.506H457.029V282.489Z" fill="white"/>
<path d="M188.721 282.489H83.7312V296.506H188.721V282.489Z" fill="white"/>
<path d="M200.981 215.084V281.821C200.982 282.672 201.319 283.487 201.92 284.088C202.521 284.69 203.335 285.028 204.184 285.029H302.956C303.806 285.028 304.62 284.69 305.221 284.088C305.821 283.487 306.159 282.672 306.16 281.821V215.084C306.158 214.234 305.819 213.42 305.219 212.819C304.619 212.219 303.805 211.881 302.956 211.88H204.184C203.336 211.881 202.522 212.219 201.922 212.819C201.321 213.42 200.983 214.234 200.981 215.084Z" fill="#3F3D56"/>
<path d="M203.298 215.914V280.998C203.299 281.452 203.48 281.888 203.8 282.209C204.121 282.53 204.556 282.711 205.01 282.712H302.134C302.588 282.711 303.023 282.53 303.344 282.209C303.665 281.888 303.845 281.452 303.846 280.998V215.914C303.846 215.459 303.666 215.023 303.345 214.701C303.024 214.379 302.588 214.197 302.134 214.196H205.01C204.556 214.197 204.12 214.379 203.799 214.701C203.478 215.023 203.298 215.459 203.298 215.914Z" fill="#FF8B16"/>
<path d="M198.915 294.837C199.096 295.064 199.326 295.247 199.588 295.373C199.85 295.498 200.137 295.562 200.427 295.561H306.188C306.478 295.56 306.763 295.496 307.024 295.371C307.285 295.246 307.515 295.065 307.697 294.84C307.88 294.615 308.009 294.352 308.077 294.071C308.145 293.789 308.15 293.496 308.091 293.213L306.449 285.404C306.381 285.086 306.234 284.79 306.023 284.542C305.811 284.295 305.541 284.105 305.237 283.989C305.017 283.902 304.783 283.858 304.547 283.858H202.062C201.826 283.858 201.591 283.902 201.371 283.989C201.068 284.105 200.798 284.295 200.586 284.542C200.374 284.79 200.228 285.086 200.16 285.404L198.518 293.213C198.46 293.496 198.465 293.789 198.534 294.07C198.602 294.351 198.733 294.613 198.915 294.837Z" fill="#2F2E41"/>
<path d="M300.917 287.222H303.416C303.625 287.222 303.795 287.051 303.795 286.842V285.645C303.795 285.435 303.625 285.265 303.416 285.265H300.917C300.708 285.265 300.538 285.435 300.538 285.645V286.842C300.538 287.051 300.708 287.222 300.917 287.222Z" fill="#3F3D56"/>
<path d="M294.403 287.222H296.901C297.111 287.222 297.281 287.051 297.281 286.842V285.645C297.281 285.435 297.111 285.265 296.901 285.265H294.403C294.193 285.265 294.023 285.435 294.023 285.645V286.842C294.023 287.051 294.193 287.222 294.403 287.222Z" fill="#3F3D56"/>
<path d="M287.888 287.222H290.386C290.596 287.222 290.766 287.051 290.766 286.842V285.645C290.766 285.435 290.596 285.265 290.386 285.265H287.888C287.678 285.265 287.508 285.435 287.508 285.645V286.842C287.508 287.051 287.678 287.222 287.888 287.222Z" fill="#3F3D56"/>
<path d="M281.373 287.222H283.871C284.081 287.222 284.251 287.051 284.251 286.842V285.645C284.251 285.435 284.081 285.265 283.871 285.265H281.373C281.164 285.265 280.994 285.435 280.994 285.645V286.842C280.994 287.051 281.164 287.222 281.373 287.222Z" fill="#3F3D56"/>
<path d="M274.858 287.222H277.356C277.566 287.222 277.736 287.051 277.736 286.842V285.645C277.736 285.435 277.566 285.265 277.356 285.265H274.858C274.649 285.265 274.479 285.435 274.479 285.645V286.842C274.479 287.051 274.649 287.222 274.858 287.222Z" fill="#3F3D56"/>
<path d="M268.343 287.222H270.842C271.051 287.222 271.221 287.051 271.221 286.842V285.645C271.221 285.435 271.051 285.265 270.842 285.265H268.343C268.134 285.265 267.964 285.435 267.964 285.645V286.842C267.964 287.051 268.134 287.222 268.343 287.222Z" fill="#3F3D56"/>
<path d="M261.829 287.222H264.327C264.536 287.222 264.706 287.051 264.706 286.842V285.645C264.706 285.435 264.536 285.265 264.327 285.265H261.829C261.619 285.265 261.449 285.435 261.449 285.645V286.842C261.449 287.051 261.619 287.222 261.829 287.222Z" fill="#3F3D56"/>
<path d="M255.314 287.222H257.812C258.022 287.222 258.192 287.051 258.192 286.842V285.645C258.192 285.435 258.022 285.265 257.812 285.265H255.314C255.104 285.265 254.934 285.435 254.934 285.645V286.842C254.934 287.051 255.104 287.222 255.314 287.222Z" fill="#3F3D56"/>
<path d="M248.799 287.222H251.297C251.507 287.222 251.677 287.051 251.677 286.842V285.645C251.677 285.435 251.507 285.265 251.297 285.265H248.799C248.589 285.265 248.419 285.435 248.419 285.645V286.842C248.419 287.051 248.589 287.222 248.799 287.222Z" fill="#3F3D56"/>
<path d="M242.284 287.222H244.782C244.992 287.222 245.162 287.051 245.162 286.842V285.645C245.162 285.435 244.992 285.265 244.782 285.265H242.284C242.074 285.265 241.904 285.435 241.904 285.645V286.842C241.904 287.051 242.074 287.222 242.284 287.222Z" fill="#3F3D56"/>
<path d="M235.769 287.222H238.268C238.477 287.222 238.647 287.051 238.647 286.842V285.645C238.647 285.435 238.477 285.265 238.268 285.265H235.769C235.56 285.265 235.39 285.435 235.39 285.645V286.842C235.39 287.051 235.56 287.222 235.769 287.222Z" fill="#3F3D56"/>
<path d="M229.255 287.222H231.753C231.962 287.222 232.132 287.051 232.132 286.842V285.645C232.132 285.435 231.962 285.265 231.753 285.265H229.255C229.045 285.265 228.875 285.435 228.875 285.645V286.842C228.875 287.051 229.045 287.222 229.255 287.222Z" fill="#3F3D56"/>
<path d="M222.74 287.222H225.238C225.447 287.222 225.617 287.051 225.617 286.842V285.645C225.617 285.435 225.447 285.265 225.238 285.265H222.74C222.53 285.265 222.36 285.435 222.36 285.645V286.842C222.36 287.051 222.53 287.222 222.74 287.222Z" fill="#3F3D56"/>
<path d="M216.225 287.222H218.723C218.933 287.222 219.103 287.051 219.103 286.842V285.645C219.103 285.435 218.933 285.265 218.723 285.265H216.225C216.015 285.265 215.845 285.435 215.845 285.645V286.842C215.845 287.051 216.015 287.222 216.225 287.222Z" fill="#3F3D56"/>
<path d="M209.71 287.222H212.208C212.418 287.222 212.588 287.051 212.588 286.842V285.645C212.588 285.435 212.418 285.265 212.208 285.265H209.71C209.5 285.265 209.33 285.435 209.33 285.645V286.842C209.33 287.051 209.5 287.222 209.71 287.222Z" fill="#3F3D56"/>
<path d="M203.195 287.222H205.693C205.903 287.222 206.073 287.051 206.073 286.842V285.645C206.073 285.435 205.903 285.265 205.693 285.265H203.195C202.986 285.265 202.816 285.435 202.816 285.645V286.842C202.816 287.051 202.986 287.222 203.195 287.222Z" fill="#3F3D56"/>
<path d="M300.995 290.483H303.493C303.702 290.483 303.872 290.313 303.872 290.103V288.906C303.872 288.696 303.702 288.526 303.493 288.526H300.995C300.785 288.526 300.615 288.696 300.615 288.906V290.103C300.615 290.313 300.785 290.483 300.995 290.483Z" fill="#3F3D56"/>
<path d="M294.48 290.483H296.978C297.187 290.483 297.357 290.313 297.357 290.103V288.906C297.357 288.696 297.187 288.526 296.978 288.526H294.48C294.27 288.526 294.1 288.696 294.1 288.906V290.103C294.1 290.313 294.27 290.483 294.48 290.483Z" fill="#3F3D56"/>
<path d="M287.965 290.483H290.463C290.673 290.483 290.843 290.313 290.843 290.103V288.906C290.843 288.696 290.673 288.526 290.463 288.526H287.965C287.755 288.526 287.585 288.696 287.585 288.906V290.103C287.585 290.313 287.755 290.483 287.965 290.483Z" fill="#3F3D56"/>
<path d="M281.45 290.483H283.948C284.158 290.483 284.328 290.313 284.328 290.103V288.906C284.328 288.696 284.158 288.526 283.948 288.526H281.45C281.24 288.526 281.07 288.696 281.07 288.906V290.103C281.07 290.313 281.24 290.483 281.45 290.483Z" fill="#3F3D56"/>
<path d="M274.935 290.483H277.433C277.643 290.483 277.813 290.313 277.813 290.103V288.906C277.813 288.696 277.643 288.526 277.433 288.526H274.935C274.726 288.526 274.556 288.696 274.556 288.906V290.103C274.556 290.313 274.726 290.483 274.935 290.483Z" fill="#3F3D56"/>
<path d="M268.42 290.483H270.918C271.128 290.483 271.298 290.313 271.298 290.103V288.906C271.298 288.696 271.128 288.526 270.918 288.526H268.42C268.211 288.526 268.041 288.696 268.041 288.906V290.103C268.041 290.313 268.211 290.483 268.42 290.483Z" fill="#3F3D56"/>
<path d="M261.906 290.483H264.404C264.613 290.483 264.783 290.313 264.783 290.103V288.906C264.783 288.696 264.613 288.526 264.404 288.526H261.906C261.696 288.526 261.526 288.696 261.526 288.906V290.103C261.526 290.313 261.696 290.483 261.906 290.483Z" fill="#3F3D56"/>
<path d="M255.391 290.483H257.889C258.099 290.483 258.269 290.313 258.269 290.103V288.906C258.269 288.696 258.099 288.526 257.889 288.526H255.391C255.181 288.526 255.011 288.696 255.011 288.906V290.103C255.011 290.313 255.181 290.483 255.391 290.483Z" fill="#3F3D56"/>
<path d="M248.876 290.483H251.374C251.584 290.483 251.754 290.313 251.754 290.103V288.906C251.754 288.696 251.584 288.526 251.374 288.526H248.876C248.666 288.526 248.496 288.696 248.496 288.906V290.103C248.496 290.313 248.666 290.483 248.876 290.483Z" fill="#3F3D56"/>
<path d="M242.361 290.483H244.859C245.069 290.483 245.239 290.313 245.239 290.103V288.906C245.239 288.696 245.069 288.526 244.859 288.526H242.361C242.152 288.526 241.982 288.696 241.982 288.906V290.103C241.982 290.313 242.152 290.483 242.361 290.483Z" fill="#3F3D56"/>
<path d="M235.846 290.483H238.344C238.554 290.483 238.724 290.313 238.724 290.103V288.906C238.724 288.696 238.554 288.526 238.344 288.526H235.846C235.637 288.526 235.467 288.696 235.467 288.906V290.103C235.467 290.313 235.637 290.483 235.846 290.483Z" fill="#3F3D56"/>
<path d="M229.331 290.483H231.83C232.039 290.483 232.209 290.313 232.209 290.103V288.906C232.209 288.696 232.039 288.526 231.83 288.526H229.331C229.122 288.526 228.952 288.696 228.952 288.906V290.103C228.952 290.313 229.122 290.483 229.331 290.483Z" fill="#3F3D56"/>
<path d="M222.817 290.483H225.315C225.525 290.483 225.695 290.313 225.695 290.103V288.906C225.695 288.696 225.525 288.526 225.315 288.526H222.817C222.607 288.526 222.437 288.696 222.437 288.906V290.103C222.437 290.313 222.607 290.483 222.817 290.483Z" fill="#3F3D56"/>
<path d="M216.302 290.483H218.8C219.01 290.483 219.18 290.313 219.18 290.103V288.906C219.18 288.696 219.01 288.526 218.8 288.526H216.302C216.092 288.526 215.922 288.696 215.922 288.906V290.103C215.922 290.313 216.092 290.483 216.302 290.483Z" fill="#3F3D56"/>
<path d="M209.787 290.483H212.285C212.495 290.483 212.665 290.313 212.665 290.103V288.906C212.665 288.696 212.495 288.526 212.285 288.526H209.787C209.577 288.526 209.407 288.696 209.407 288.906V290.103C209.407 290.313 209.577 290.483 209.787 290.483Z" fill="#3F3D56"/>
<path d="M203.272 290.483H205.77C205.98 290.483 206.15 290.313 206.15 290.103V288.906C206.15 288.696 205.98 288.526 205.77 288.526H203.272C203.063 288.526 202.893 288.696 202.893 288.906V290.103C202.893 290.313 203.063 290.483 203.272 290.483Z" fill="#3F3D56"/>
<path d="M246.922 294.397H272.221C272.431 294.397 272.601 294.227 272.601 294.017V292.82C272.601 292.61 272.431 292.44 272.221 292.44H246.922C246.712 292.44 246.542 292.61 246.542 292.82V294.017C246.542 294.227 246.712 294.397 246.922 294.397Z" fill="#3F3D56"/>
</g>
<defs>
<clipPath id="clip0_56_1006">
<rect width="648" height="493" fill="white"/>
</clipPath>
</defs>
</svg>
