<svg width="138" height="225" viewBox="0 0 138 225" fill="none" xmlns="http://www.w3.org/2000/svg">
<g clip-path="url(#clip0_2005_3454)">
<path d="M131.915 151.861L130.271 217.526L129.75 225H107.718L106.924 210.598L100.483 155.707L131.915 151.861Z" fill="#ED9DA0"/>
<path d="M35.5655 207.627L31.8377 224.95H107.578L104.851 215.761L35.5655 207.627Z" fill="#090814"/>
<path d="M10.4095 194.593L0.0109263 207.446C0.0109263 207.446 -0.770786 224.951 10.4095 224.951C21.5897 224.951 38.1217 192.149 38.1217 192.149L26.4941 162.636L7.74984 158.016L10.4095 194.593Z" fill="#ED9DA0"/>
<path d="M87.3283 96.6406C87.3283 96.6406 74.1746 146.136 52.8002 102.58L24.5475 115.73C24.5475 115.73 26.5205 190.303 32.4395 200.864C32.4395 200.864 26.1923 210.764 33.7549 212.743C41.3175 214.722 37.3719 211.423 41.3181 214.723C45.2642 218.022 53.1561 212.413 53.1561 212.413C53.1561 212.413 93.0756 227.691 104.85 215.762V166.346C104.85 166.346 124.845 148.069 137.998 161.268C137.998 161.268 135.367 119.362 120.569 110.123C105.771 100.883 87.3275 96.6429 87.3275 96.6429L87.3283 96.6406Z" fill="#FF8B16"/>
<path d="M30.6331 119.194L24.5495 115.729C24.5495 115.729 1.03649 157.471 3.66835 163.41C6.30022 169.35 37.2102 169.02 37.2102 169.02L30.6331 119.194Z" fill="#FF8B16"/>
<path d="M25.5173 103.804L18.8289 155.966C18.1314 155.519 17.4615 155.03 16.8229 154.501L21.0975 103.355L25.5173 103.805V103.804Z" fill="#090814"/>
<path d="M84.9327 48.9311C85.4683 47.2717 87.8477 46.7863 89.2704 47.7853C90.6931 48.7843 91.18 50.7443 90.9039 52.4653C90.6278 54.1863 89.7267 55.7334 88.8441 57.2345C82.2459 68.4501 73.5739 100.169 66.973 111.386C68.9452 112.673 71.2097 113.439 73.556 113.612C75.9022 113.786 78.2541 113.361 80.393 112.378C81.5253 114.34 83.1872 115.941 85.187 116.996C87.1868 118.051 89.4431 118.517 91.6955 118.341C93.948 118.164 96.1049 117.353 97.9176 116C99.7303 114.646 101.125 112.806 101.94 110.692L98.6941 118.202C101.418 117.284 103.893 115.745 105.925 113.705C107.956 111.666 109.489 109.182 110.403 106.448L106.848 117.42C114.293 112.782 119.91 83.1452 117.363 73.9632C117.317 73.8012 117.324 73.6287 117.384 73.4713C117.444 73.3139 117.552 73.1801 117.694 73.0896L117.704 73.0832C117.792 73.0279 117.868 72.9562 117.928 72.872C121.966 67.189 120.405 59.1188 116.998 53.0126C113.563 46.8591 108.512 41.6827 105.491 35.3158C101.479 26.8631 101.098 16.4771 94.7527 9.61376C90.7253 5.25945 84.8108 3.04798 78.9265 2.3907C73.0422 1.73342 67.1033 2.48717 61.2305 3.23867L61.6369 2.29086C56.5831 -1.40617 49.2319 -0.292422 44.0606 3.23951C38.8894 6.77145 35.4018 12.2283 32.0577 17.5335L22.8686 32.1132C19.8696 36.8731 8.22436 57.8195 7.14471 63.3452C6.06506 68.8709 7.38996 75.2446 11.8439 78.6705L13.5363 69.8449L13.0038 70.3072C16.7876 84.1132 16.7657 104.539 4.40578 111.694C7.13147 112.461 10.006 112.527 12.7635 111.884C15.521 111.241 18.0724 109.91 20.1816 108.016L12.2683 116.894C16.5729 116.809 20.7488 115.406 24.2364 112.872L18.1823 120.077L34.3547 111.748L30.9913 120.304L51.2112 116.494" fill="#090814"/>
<path d="M100.36 57.0802C100.67 50.3562 99.1179 43.6773 95.8745 37.7852C92.6311 31.8931 87.8238 27.0182 81.9863 23.702C76.1489 20.3857 69.5096 18.7578 62.8058 18.999C56.1021 19.2402 49.5961 21.341 44.0102 25.0683C38.4244 28.7955 33.9774 34.0033 31.1629 40.1134C28.3484 46.2235 27.2766 52.9968 28.0665 59.6812C28.8564 66.3655 31.477 72.6995 35.6375 77.9796C39.798 83.2598 45.3354 87.2796 51.635 89.5927L56.4839 136.395L93.5988 108.19C93.5988 108.19 86.3395 97.9646 82.7157 86.6466C87.8633 83.5657 92.1694 79.2522 95.2486 74.092C98.3277 68.9319 100.084 63.0862 100.36 57.0782V57.0802Z" fill="#ED9DA0"/>
<path d="M60.902 3.23945C66.7745 2.48823 72.7154 1.73588 78.598 2.39148C84.4806 3.04707 90.398 5.25826 94.4234 9.61313C100.769 16.4756 101.15 26.8628 105.161 35.3154C108.183 41.6824 113.235 46.8591 116.668 53.0123C120.076 59.1199 121.636 67.1873 117.599 72.8716C117.538 72.9558 117.462 73.0276 117.374 73.0828C117.23 73.1736 117.12 73.3095 117.06 73.4694C117.001 73.6294 116.996 73.8046 117.045 73.9679C119.656 82.3326 116.027 92.2885 108.591 96.9213L112.146 85.948C110.37 91.4144 104.699 115.226 99.253 117.012L102.5 109.502C101.684 111.617 100.289 113.457 98.4768 114.81C96.6641 116.163 94.5072 116.975 92.2547 117.151C90.0022 117.327 87.746 116.861 85.7462 115.806C83.7464 114.751 82.0845 113.15 80.9521 111.189C78.8132 112.172 76.4614 112.596 74.1151 112.423C71.7689 112.249 69.5044 111.484 67.5321 110.197C74.1317 98.9789 81.9155 68.4504 88.515 57.2327C89.3982 55.7314 90.2982 54.1848 90.5748 52.4635C90.8515 50.7423 90.3655 48.7823 88.9413 47.7835C87.5172 46.7848 85.1393 47.2711 84.6037 48.9293" fill="#090814"/>
<path d="M85.0269 48.7937L50.4987 21.0751L25.6989 63.2567V36.6412L54.4437 8.86719L77.4623 11.1771L85.0269 48.7937Z" fill="#090814"/>
<path d="M130.763 180.261L53.0017 215.1C51.7335 215.667 50.2932 215.706 48.9967 215.208C47.7003 214.71 46.6535 213.716 46.0862 212.445L6.23743 122.887C5.67265 121.615 5.63392 120.17 6.12974 118.869C6.62556 117.568 7.61544 116.517 8.88219 115.948L86.6444 81.1085C87.9124 80.5424 89.3524 80.504 90.6485 81.0018C91.9447 81.4995 92.9911 82.4928 93.5585 83.7637L133.41 173.324C133.975 174.596 134.013 176.041 133.517 177.342C133.021 178.643 132.031 179.694 130.764 180.263L130.763 180.261Z" fill="#D6D6E3"/>
<path d="M127.181 178.371L54.9892 207.687C53.7956 208.22 52.44 208.257 51.2197 207.788C49.9995 207.319 49.0143 206.384 48.4804 205.188L9.97502 124.369C9.44351 123.172 9.40724 121.811 9.87418 120.587C10.3411 119.362 11.2731 118.374 12.4656 117.838L85.6547 85.0471C86.8483 84.5138 88.204 84.4775 89.4242 84.9461C90.6445 85.4147 91.6296 86.3499 92.1635 87.5465L129.672 171.841C130.203 173.038 130.239 174.399 129.772 175.623C129.305 176.848 128.373 177.836 127.181 178.372V178.371Z" fill="white"/>
<path d="M24.7109 143.466L21.5956 205.949L0.0117645 207.446L7.57663 142.643C4.59104 139.447 2.80479 134.678 3.05565 129.433C3.49373 120.252 9.98623 113.107 17.5567 113.471C25.1272 113.835 30.9103 121.571 30.4705 130.75C30.2196 135.996 27.9872 140.572 24.7109 143.466Z" fill="#ED9DA0"/>
<path d="M80.1828 110.157L64.4816 117.173C62.1165 118.229 59.7137 117.992 59.1148 116.642C58.5159 115.293 59.9475 113.342 62.3126 112.285L78.0138 105.269C80.3788 104.212 82.7816 104.45 83.3806 105.799C83.9796 107.149 82.5479 109.1 80.1828 110.157Z" fill="#FF8B16"/>
<path d="M65.6551 181.406C69.2928 181.406 72.2418 178.447 72.2418 174.797C72.2418 171.147 69.2928 168.188 65.6551 168.188C62.0174 168.188 59.0684 171.147 59.0684 174.797C59.0684 178.447 62.0174 181.406 65.6551 181.406Z" fill="#E6E6E6"/>
<path d="M103.373 158.214L76.0639 170.417C75.8546 170.515 75.6279 170.571 75.397 170.582C75.166 170.593 74.9352 170.558 74.7178 170.479C74.5003 170.4 74.3005 170.279 74.1297 170.122C73.9589 169.966 73.8205 169.777 73.7223 169.567C73.5408 169.136 73.5377 168.649 73.7135 168.215C73.8893 167.781 74.2298 167.435 74.66 167.253L101.969 155.051C102.391 154.852 102.876 154.829 103.315 154.989C103.754 155.148 104.112 155.476 104.31 155.9C104.492 156.331 104.495 156.818 104.319 157.252C104.143 157.686 103.803 158.032 103.372 158.214L103.373 158.214Z" fill="#E6E6E6"/>
<path d="M51.0258 111.949L33.4859 119.648C33.4175 119.678 33.3557 119.721 33.3039 119.775C33.2522 119.829 33.2116 119.893 33.1844 119.963C33.1572 120.032 33.1439 120.107 33.1454 120.182C33.1469 120.257 33.163 120.331 33.193 120.399L39.1807 134.134C39.2106 134.203 39.2537 134.265 39.3075 134.316C39.3613 134.368 39.4248 134.409 39.4943 134.436C39.5638 134.464 39.638 134.477 39.7126 134.476C39.7873 134.474 39.8609 134.458 39.9293 134.428L57.469 126.73C57.6071 126.669 57.7155 126.556 57.7704 126.415C57.8254 126.275 57.8223 126.118 57.762 125.979L51.774 112.243C51.7136 112.105 51.6008 111.996 51.4605 111.941C51.3202 111.886 51.1638 111.889 51.0258 111.949Z" fill="#F2F2F2"/>
<path d="M42.5885 122.599C42.5543 122.57 42.514 122.548 42.4704 122.536C42.4269 122.523 42.3811 122.521 42.3365 122.528C42.2918 122.536 42.2492 122.553 42.2118 122.578C42.1744 122.604 42.143 122.637 42.1198 122.676C42.0785 122.759 42.0607 122.852 42.0681 122.944C42.0756 123.036 42.1081 123.124 42.1621 123.199C42.2723 123.347 42.4092 123.473 42.5656 123.571C43.6847 124.369 45.8827 127.059 47.0019 127.857C46.8662 128.067 46.6799 128.239 46.4602 128.357C46.2406 128.475 45.9948 128.536 45.7457 128.534C45.7202 128.772 45.6279 128.999 45.4796 129.187C45.3313 129.376 45.133 129.519 44.9075 129.599C44.4473 129.763 43.9343 129.648 44.2243 129.889C43.61 129.948 43.0044 129.715 43.4017 130.166C42.4832 130.04 40.6698 127.419 40.5228 126.422C40.5203 126.404 40.5122 126.388 40.4997 126.375C40.4872 126.362 40.4709 126.354 40.4533 126.351C40.4425 126.35 40.4322 126.346 40.4228 126.341C39.7886 125.966 39.5939 125.119 39.6619 124.382C39.7315 123.638 39.9969 122.92 40.0171 122.174C40.0421 121.183 39.6342 120.163 39.9539 119.225C40.185 118.634 40.6182 118.143 41.1759 117.842C41.7299 117.546 42.317 117.316 42.9247 117.158L42.8446 117.084C43.1752 116.508 43.9344 116.298 44.5859 116.415C45.23 116.579 45.8339 116.872 46.3604 117.278L47.8744 118.289C48.3686 118.62 50.3928 120.139 50.7342 120.627C50.9171 120.862 51.0325 121.144 51.0681 121.44C51.1036 121.737 51.058 122.038 50.936 122.311L50.3941 121.531L50.4652 121.553C50.6903 123.05 51.9658 125.693 51.3852 125.507C52.1111 126.2 51.6467 126.245 48.7457 127.669" fill="#090814"/>
<path d="M41.4452 124.056C41.1269 123.419 40.9909 122.707 41.0522 121.997C41.1136 121.287 41.37 120.607 41.7929 120.034C42.2159 119.461 42.7888 119.016 43.4481 118.749C44.1074 118.482 44.8272 118.403 45.5277 118.522C46.2282 118.64 46.8819 118.951 47.4162 119.42C47.9505 119.889 48.3446 120.497 48.5546 121.177C48.7646 121.858 48.7823 122.584 48.6058 123.274C48.4293 123.964 48.0655 124.593 47.5548 125.089L49.7129 130.052L46.214 129.182L44.29 128.703C44.4471 127.862 44.491 127.003 44.4206 126.151C43.7901 126.076 43.1883 125.845 42.669 125.479C42.1497 125.114 41.7292 124.625 41.4451 124.056L41.4452 124.056Z" fill="#ED9DA0"/>
<path d="M42.9585 117.14C42.3505 117.298 41.7632 117.528 41.209 117.824C40.6511 118.126 40.2179 118.616 39.9868 119.208C39.6664 120.146 40.075 121.166 40.0484 122.157C40.0292 122.904 39.7614 123.622 39.6931 124.365C39.6253 125.104 39.8198 125.951 40.4541 126.325C40.4635 126.331 40.4739 126.334 40.4847 126.336C40.5025 126.338 40.519 126.347 40.5316 126.36C40.5442 126.373 40.5522 126.389 40.5544 126.407C40.6173 126.869 40.8262 127.298 41.1506 127.632C41.475 127.965 41.8976 128.185 42.3565 128.26L41.5427 127.353C41.9491 127.805 44.8056 129.508 44.8056 129.508C44.8056 129.508 45.592 128.93 45.644 128.443C45.8932 128.445 46.1391 128.384 46.3588 128.266C46.5785 128.148 46.7649 127.976 46.9007 127.766C45.7811 126.967 43.7197 124.354 42.5997 123.555C42.4432 123.457 42.3063 123.331 42.196 123.183C42.142 123.108 42.1095 123.02 42.1021 122.928C42.0946 122.835 42.1125 122.743 42.1537 122.66C42.1769 122.621 42.2083 122.588 42.2458 122.562C42.2832 122.536 42.3258 122.519 42.3705 122.512C42.4152 122.505 42.4609 122.507 42.5045 122.519C42.548 122.532 42.5884 122.553 42.6227 122.583" fill="#090814"/>
<path d="M42.5718 122.589L44.7253 118.417L48.932 121.419L47.7919 118.848L43.8206 117.408L41.6921 118.627L42.5718 122.589Z" fill="#090814"/>
<path d="M105.334 162.374L78.0256 174.576C77.8163 174.674 77.5896 174.731 77.3587 174.741C77.1277 174.752 76.8969 174.717 76.6795 174.638C76.462 174.559 76.2622 174.438 76.0914 174.282C75.9206 174.125 75.7822 173.937 75.684 173.727C75.5025 173.295 75.4994 172.809 75.6752 172.375C75.851 171.941 76.1915 171.594 76.6217 171.412L103.93 159.21C104.353 159.011 104.837 158.989 105.276 159.148C105.715 159.307 106.074 159.635 106.272 160.059C106.453 160.491 106.456 160.977 106.281 161.411C106.105 161.845 105.764 162.191 105.334 162.373L105.334 162.374Z" fill="#E6E6E6"/>
<path d="M58.2273 167.137C61.865 167.137 64.814 164.178 64.814 160.527C64.814 156.877 61.865 153.918 58.2273 153.918C54.5896 153.918 51.6406 156.877 51.6406 160.527C51.6406 164.178 54.5896 167.137 58.2273 167.137Z" fill="#E6E6E6"/>
<path d="M95.9448 143.946L68.6361 156.148C68.4267 156.247 68.2001 156.303 67.9691 156.314C67.7382 156.324 67.5074 156.289 67.29 156.21C67.0725 156.131 66.8727 156.01 66.7019 155.854C66.5311 155.697 66.3926 155.509 66.2945 155.299C66.113 154.867 66.1098 154.381 66.2857 153.947C66.4615 153.513 66.802 153.167 67.2321 152.985L94.5409 140.782C94.9636 140.583 95.4477 140.561 95.8868 140.72C96.3259 140.879 96.684 141.207 96.8823 141.631C97.0638 142.063 97.067 142.549 96.8911 142.983C96.7153 143.417 96.3748 143.763 95.9447 143.946L95.9448 143.946Z" fill="#E6E6E6"/>
<path d="M97.9068 148.105L70.5981 160.307C70.3887 160.406 70.1621 160.462 69.9312 160.473C69.7002 160.483 69.4694 160.448 69.252 160.369C69.0345 160.29 68.8347 160.169 68.6639 160.013C68.4931 159.857 68.3547 159.668 68.2565 159.458C68.075 159.026 68.0718 158.54 68.2477 158.106C68.4235 157.672 68.764 157.326 69.1941 157.144L96.5029 144.941C96.9256 144.742 97.4097 144.72 97.8488 144.879C98.2879 145.039 98.646 145.366 98.8443 145.79C99.0258 146.222 99.029 146.708 98.8531 147.142C98.6773 147.576 98.3368 147.923 97.9067 148.105L97.9068 148.105Z" fill="#E6E6E6"/>
<path d="M49.6593 151.861C53.297 151.861 56.246 148.902 56.246 145.252C56.246 141.602 53.297 138.643 49.6593 138.643C46.0216 138.643 43.0726 141.602 43.0726 145.252C43.0726 148.902 46.0216 151.861 49.6593 151.861Z" fill="#E6E6E6"/>
<path d="M87.3771 128.669L60.0683 140.872C59.859 140.97 59.6324 141.027 59.4014 141.037C59.1705 141.048 58.9397 141.013 58.7223 140.934C58.5048 140.855 58.305 140.734 58.1342 140.577C57.9634 140.421 57.8249 140.233 57.7268 140.022C57.5453 139.591 57.5421 139.104 57.718 138.67C57.8938 138.236 58.2343 137.89 58.6644 137.708L85.9731 125.506C86.3959 125.307 86.88 125.285 87.3191 125.444C87.7582 125.603 88.1163 125.931 88.3146 126.355C88.4961 126.787 88.4993 127.273 88.3234 127.707C88.1476 128.141 87.8071 128.487 87.377 128.669L87.3771 128.669Z" fill="#E6E6E6"/>
<path d="M89.3391 132.829L62.0303 145.031C61.821 145.13 61.5944 145.186 61.3634 145.196C61.1325 145.207 60.9017 145.172 60.6842 145.093C60.4668 145.014 60.267 144.893 60.0962 144.737C59.9254 144.58 59.7869 144.392 59.6888 144.182C59.5073 143.75 59.5041 143.264 59.6799 142.83C59.8558 142.396 60.1962 142.049 60.6264 141.867L87.9351 129.665C88.3578 129.466 88.842 129.444 89.2811 129.603C89.7202 129.762 90.0783 130.09 90.2766 130.514C90.4581 130.946 90.4612 131.432 90.2854 131.866C90.1095 132.3 89.7691 132.646 89.3389 132.828L89.3391 132.829Z" fill="#E6E6E6"/>
</g>
<defs>
<clipPath id="clip0_2005_3454">
<rect width="138" height="225" fill="white"/>
</clipPath>
</defs>
</svg>
