<svg width="452" height="208" viewBox="0 0 452 208" fill="none" xmlns="http://www.w3.org/2000/svg">
<g clip-path="url(#clip0_9_1046)">
<path d="M424.645 108.49C424.582 108.49 424.519 108.479 424.461 108.459C424.403 108.439 424.35 108.41 424.305 108.373L401.241 89.1725C401.197 89.1354 401.161 89.0913 401.137 89.0429C401.113 88.9944 401.101 88.9424 401.101 88.8899C401.101 88.8374 401.113 88.7854 401.137 88.737C401.161 88.6885 401.197 88.6444 401.241 88.6073C401.286 88.5702 401.339 88.5407 401.397 88.5207C401.455 88.5006 401.518 88.4902 401.581 88.4902C401.644 88.4902 401.706 88.5006 401.764 88.5207C401.822 88.5407 401.875 88.5702 401.92 88.6073L424.984 107.807C425.051 107.863 425.097 107.934 425.115 108.012C425.134 108.089 425.124 108.17 425.088 108.243C425.051 108.315 424.99 108.378 424.911 108.422C424.832 108.465 424.74 108.489 424.645 108.489V108.49Z" fill="#D6D6E3"/>
<path d="M350.062 121.524C350.062 98.0738 372.882 42.4285 401.031 42.4285C429.181 42.4285 452 98.0757 452 121.524C452 127.099 450.682 132.621 448.121 137.772C445.559 142.923 441.805 147.604 437.072 151.547C432.339 155.489 426.72 158.617 420.537 160.751C414.353 162.884 407.725 163.983 401.032 163.983C394.338 163.983 387.711 162.884 381.527 160.751C375.343 158.617 369.724 155.489 364.991 151.547C360.258 147.604 356.504 142.923 353.943 137.772C351.381 132.621 350.062 127.099 350.062 121.524Z" fill="#FF8B16"/>
<path d="M401.031 192.581C400.919 192.581 400.813 192.544 400.734 192.479C400.656 192.413 400.612 192.325 400.612 192.232V45.8456C400.612 45.753 400.656 45.6643 400.734 45.5988C400.813 45.5334 400.919 45.4966 401.031 45.4966C401.142 45.4966 401.248 45.5334 401.327 45.5988C401.405 45.6643 401.45 45.753 401.45 45.8456V192.232C401.45 192.325 401.405 192.413 401.327 192.479C401.248 192.544 401.142 192.581 401.031 192.581Z" fill="#D6D6E3"/>
<path d="M401.03 106.35C400.975 106.35 400.921 106.341 400.87 106.323C400.819 106.306 400.773 106.28 400.734 106.247L380.56 89.4418C380.522 89.4094 380.491 89.3709 380.47 89.3286C380.449 89.2862 380.438 89.2408 380.438 89.195C380.438 89.1491 380.449 89.1038 380.47 89.0614C380.491 89.0191 380.522 88.9806 380.56 88.9482C380.599 88.9158 380.646 88.8901 380.696 88.8725C380.747 88.855 380.802 88.8459 380.857 88.8459C380.912 88.8459 380.966 88.855 381.017 88.8725C381.068 88.8901 381.114 88.9158 381.153 88.9482L401.326 105.754C401.385 105.802 401.425 105.865 401.441 105.932C401.457 106 401.449 106.07 401.417 106.134C401.385 106.198 401.332 106.252 401.263 106.291C401.194 106.329 401.113 106.35 401.03 106.35Z" fill="#D6D6E3"/>
<path d="M401.031 135.445C400.948 135.445 400.867 135.424 400.798 135.386C400.729 135.347 400.675 135.293 400.643 135.229C400.612 135.165 400.603 135.095 400.62 135.027C400.636 134.96 400.676 134.897 400.734 134.849L434.518 106.705C434.597 106.639 434.703 106.603 434.815 106.603C434.926 106.603 435.032 106.639 435.111 106.705C435.189 106.77 435.234 106.859 435.234 106.952C435.234 107.044 435.189 107.133 435.111 107.198L401.327 135.343C401.288 135.376 401.242 135.401 401.191 135.419C401.14 135.437 401.086 135.446 401.031 135.445V135.445Z" fill="#D6D6E3"/>
<path d="M0 102.396C0 72.0382 29.5427 -0.000488281 65.9847 -0.000488281C102.427 -0.000488281 131.969 72.0382 131.969 102.396C131.969 116.975 125.018 130.956 112.643 141.265C100.268 151.573 83.485 157.364 65.9847 157.364C48.4845 157.364 31.701 151.573 19.3265 141.265C6.95194 130.956 0 116.975 0 102.396Z" fill="#FF8B16"/>
<path d="M65.9852 194.387C65.8412 194.387 65.7032 194.339 65.6014 194.254C65.4996 194.169 65.4424 194.054 65.4424 193.934V4.42148C65.4469 4.30414 65.5061 4.19287 65.6073 4.11121C65.7086 4.02954 65.844 3.98389 65.9849 3.98389C66.1258 3.98389 66.2612 4.02954 66.3625 4.11121C66.4637 4.19287 66.5229 4.30414 66.5274 4.42148V193.934C66.5274 194.054 66.4703 194.169 66.3686 194.254C66.267 194.339 66.1291 194.386 65.9852 194.387Z" fill="#D6D6E3"/>
<path d="M65.9847 82.7507C65.9135 82.7508 65.8429 82.7391 65.7771 82.7164C65.7114 82.6937 65.6516 82.6604 65.6013 82.6183L39.4845 60.8619C39.4315 60.8205 39.3891 60.7705 39.3597 60.7151C39.3304 60.6598 39.3147 60.6 39.3135 60.5395C39.3124 60.4789 39.3259 60.4188 39.3532 60.3627C39.3805 60.3066 39.4211 60.2556 39.4725 60.2128C39.5239 60.1699 39.5851 60.1362 39.6524 60.1134C39.7198 60.0907 39.792 60.0794 39.8647 60.0804C39.9373 60.0813 40.0091 60.0944 40.0756 60.1189C40.142 60.1433 40.202 60.1787 40.2518 60.2228L66.3686 81.9792C66.4443 82.0424 66.4959 82.123 66.5168 82.2106C66.5376 82.2983 66.5268 82.3891 66.4857 82.4717C66.4447 82.5542 66.3751 82.6248 66.286 82.6744C66.1968 82.7241 66.0919 82.7506 65.9847 82.7507Z" fill="#D6D6E3"/>
<path d="M65.9853 120.415C65.8781 120.415 65.7732 120.388 65.684 120.338C65.5948 120.289 65.5253 120.218 65.4842 120.136C65.4432 120.053 65.4324 119.962 65.4532 119.875C65.4741 119.787 65.5256 119.706 65.6014 119.643L109.338 83.2079C109.441 83.1275 109.578 83.0834 109.719 83.0853C109.86 83.0871 109.994 83.1346 110.094 83.2176C110.194 83.3007 110.251 83.4129 110.253 83.5304C110.255 83.6479 110.202 83.7615 110.106 83.8471L66.3664 120.282C66.2654 120.367 66.1284 120.414 65.9853 120.415Z" fill="#D6D6E3"/>
<path d="M420.981 194.386H10.1826C9.87729 194.386 9.62964 193.982 9.62964 193.483C9.62964 192.984 9.87729 192.581 10.1826 192.581H420.981C421.286 192.581 421.534 192.985 421.534 193.483C421.534 193.981 421.286 194.386 420.981 194.386Z" fill="#E6E6E6"/>
<path d="M371.183 118.466C371.982 118.466 372.749 118.202 373.314 117.731C373.879 117.26 374.197 116.621 374.197 115.956C374.197 115.29 373.879 114.651 373.314 114.18C372.749 113.71 371.982 113.445 371.183 113.445H342.553V103.401H371.183C371.982 103.401 372.749 103.137 373.314 102.666C373.879 102.195 374.197 101.557 374.197 100.891C374.197 100.225 373.879 99.5865 373.314 99.1157C372.749 98.6449 371.982 98.3804 371.183 98.3804H127.076C126.276 98.3804 125.51 98.6449 124.945 99.1157C124.38 99.5865 124.062 100.225 124.062 100.891C124.062 101.557 124.38 102.195 124.945 102.666C125.51 103.137 126.276 103.401 127.076 103.401H155.705V113.444H127.076C126.276 113.444 125.51 113.708 124.945 114.179C124.38 114.65 124.062 115.288 124.062 115.954C124.062 116.62 124.38 117.259 124.945 117.729C125.51 118.2 126.276 118.465 127.076 118.465H155.706V128.507H127.076C126.276 128.507 125.51 128.771 124.945 129.242C124.38 129.713 124.062 130.351 124.062 131.017C124.062 131.683 124.38 132.322 124.945 132.793C125.51 133.263 126.276 133.528 127.076 133.528H155.706V143.57H130.092C128.494 143.57 126.961 144.099 125.83 145.041C124.7 145.982 124.065 147.259 124.065 148.591C124.065 149.923 124.7 151.2 125.83 152.142C126.961 153.083 128.494 153.612 130.092 153.612H154.478C154.301 154.014 154.207 154.439 154.202 154.867V190.014C154.202 191.013 154.678 191.971 155.526 192.677C156.374 193.383 157.523 193.78 158.722 193.78C159.921 193.78 161.071 193.383 161.919 192.677C162.767 191.971 163.243 191.013 163.243 190.014V154.869C163.238 154.44 163.144 154.016 162.966 153.614H335.299C335.121 154.016 335.028 154.44 335.023 154.869V190.016C335.023 191.015 335.499 191.972 336.347 192.679C337.194 193.385 338.344 193.782 339.543 193.782C340.742 193.782 341.892 193.385 342.74 192.679C343.587 191.972 344.064 191.015 344.064 190.016V154.869C344.058 154.44 343.965 154.016 343.787 153.614H368.173C369.772 153.614 371.305 153.085 372.435 152.143C373.566 151.201 374.201 149.924 374.201 148.593C374.201 147.261 373.566 145.984 372.435 145.042C371.305 144.1 369.772 143.571 368.173 143.571H342.56V133.529H371.19C371.989 133.529 372.756 133.265 373.321 132.794C373.886 132.323 374.204 131.685 374.204 131.019C374.204 130.353 373.886 129.714 373.321 129.244C372.756 128.773 371.989 128.508 371.19 128.508H342.56V118.466H371.183ZM161.733 103.401H336.526V113.444H161.733V103.401ZM336.526 143.57H161.733V133.527H336.526V143.57ZM336.526 128.506H161.733V118.464H336.526V128.506Z" fill="#D6D6E3"/>
<path d="M216.98 128.992C218.804 128.992 220.283 127.761 220.283 126.241C220.283 124.722 218.804 123.49 216.98 123.49C215.156 123.49 213.677 124.722 213.677 126.241C213.677 127.761 215.156 128.992 216.98 128.992Z" fill="white"/>
<path d="M243.314 95.3467L241.782 87.3667L252.129 83.8557L253.662 95.9878L243.314 95.3467Z" fill="#E5B6BD"/>
<path d="M215.454 146.54C211.954 148.446 207.94 148.488 206.481 146.634C205.021 144.78 206.681 141.729 210.182 139.823C211.568 139.045 213.158 138.555 214.818 138.394L229.766 130.471L234.079 136.395L218.885 143.576C218.042 144.778 216.865 145.794 215.454 146.54Z" fill="#E5B6BD"/>
<path d="M248.895 96.7083C250.185 96.7965 251.438 97.1145 252.568 97.6408C253.698 98.1672 254.679 98.8896 255.445 99.7591C256.211 100.629 256.744 101.625 257.007 102.681C257.271 103.737 257.259 104.828 256.973 105.88L250.736 128.814L222.027 142.794L218.493 135.313L238.073 123.172L239.121 103.874C239.176 102.863 239.475 101.871 240 100.958C240.526 100.045 241.267 99.2296 242.18 98.5606C243.092 97.8917 244.157 97.3828 245.311 97.0646C246.465 96.7463 247.683 96.6251 248.895 96.7083Z" fill="#FF8B16"/>
<path d="M194.753 178.139L188.672 185.712L187.541 188.085L184.205 189.842L171.563 184.953L174.302 179.957L182.511 180.409L185.885 176.097L194.753 178.139Z" fill="#E5B6BD"/>
<path d="M173.73 183.591L173.855 184.635L188.443 187.903C188.443 187.903 184.549 192.221 183.897 193.119C183.246 194.017 162.755 183.709 159.933 181.799C157.11 179.889 159.793 178.051 159.793 178.051L176.235 179.441L173.731 183.594L173.73 183.591Z" fill="#090814"/>
<path d="M262.004 135.855L263.623 139.045C263.623 139.045 267.156 148.12 249.049 151.309C230.941 154.497 221.522 153.148 221.522 153.148L190.311 184.298L182.364 178.534L207.229 147.129C208.863 145.066 211.257 143.501 214.052 142.67L251.509 131.528L262.004 135.855Z" fill="#090814"/>
<path d="M214.297 191.332L210.296 199.813L209.798 202.332L206.99 204.64L193.385 202.109L194.782 196.739L202.918 195.722L205.111 190.911L214.297 191.332Z" fill="#E5B6BD"/>
<path d="M195.152 200.393L195.542 201.391L210.628 201.993C210.628 201.993 207.928 206.902 207.522 207.896C207.115 208.89 184.458 202.458 181.212 201.095C177.965 199.733 180.116 197.458 180.116 197.458L196.536 195.893L195.152 200.393Z" fill="#090814"/>
<path d="M270.629 135.785L273.027 138.614C273.027 138.614 278.802 146.853 261.926 153.184C245.05 159.514 235.5 159.872 235.5 159.872L212.98 195.849L203.738 191.629L221.64 152.976L239.091 139.637L270.63 135.785L270.629 135.785Z" fill="#090814"/>
<path d="M240.879 93.0871L254.276 89.408L266.896 100.915C270.82 104.494 273.102 109.11 273.342 113.952L274.736 142.02L241.32 136.992L240.878 93.0871H240.879Z" fill="#FF8B16"/>
<path d="M246.306 90.7404C252.841 90.7404 258.139 86.3273 258.139 80.8834C258.139 75.4395 252.841 71.0264 246.306 71.0264C239.771 71.0264 234.474 75.4395 234.474 80.8834C234.474 86.3273 239.771 90.7404 246.306 90.7404Z" fill="#E5B6BD"/>
<path d="M281.743 196.803H281.73C281.795 196.791 281.862 196.791 281.927 196.803C281.866 196.798 281.804 196.798 281.743 196.803Z" fill="white"/>
<path d="M279.675 183.142C279.775 183.171 279.82 183.185 279.83 183.189L279.679 183.142H279.675Z" fill="white"/>
<path d="M279.69 176.522L279.733 176.51C279.554 176.616 279.537 176.59 279.613 176.551C279.64 176.543 279.661 176.533 279.685 176.523L279.69 176.522Z" fill="white"/>
<path d="M246.232 68.5093C245.923 68.6591 245.51 68.4321 245.408 68.1448C245.345 67.8489 245.389 67.5441 245.536 67.2696C245.73 66.7934 245.918 66.3219 246.114 65.8457C246.436 64.8117 247.025 63.8489 247.841 63.0248C249.177 61.8656 251.309 61.5703 253.218 61.7851C255.674 62.0611 258.097 63.1694 259.24 65.0012C260.382 66.833 259.895 69.3949 257.83 70.538C260.774 73.3477 261.797 76.4795 261.635 80.2019C261.474 83.9244 256.6 87.3567 253.422 89.9817C252.712 89.6247 252.065 87.9436 252.46 87.3336C252.856 86.7237 252.291 86.0176 252.774 85.4529C253.258 84.8881 253.664 85.7868 253.175 85.2268C252.866 84.8735 254.069 84.0638 253.613 83.8528C251.397 82.8298 250.659 80.5293 249.269 78.7658C248.417 77.7041 247.294 76.8124 245.98 76.1547C244.666 75.497 243.193 75.0895 241.668 74.9614C239.982 74.7831 238.275 75.108 236.849 75.8784C236.15 76.2723 235.597 76.8216 235.253 77.464C234.909 78.1064 234.789 78.8162 234.905 79.5128C234.49 79.1625 234.177 78.7378 233.989 78.2712C233.802 77.8046 233.745 77.3085 233.822 76.8206C233.9 76.3328 234.111 75.8663 234.438 75.4567C234.766 75.0471 235.201 74.7053 235.711 74.4574C235.413 73.6018 235.38 72.697 235.615 71.8278C235.85 70.9586 236.346 70.1533 237.057 69.4872C238.489 68.1711 244.3 68.3972 246.391 68.7425L246.23 68.5122L246.234 68.5084L246.232 68.5093Z" fill="#090814"/>
<path d="M246.556 75.0119C249.326 75.261 251.324 77.261 253.014 79.1046C253.986 80.1676 255.009 81.3424 254.982 82.6815C254.958 84.0328 253.871 85.1953 253.351 86.4732C252.947 87.5301 252.92 88.6621 253.275 89.7312C253.63 90.8004 254.35 91.7606 255.348 92.4947C254.343 92.6213 253.317 92.4226 252.482 91.9395C251.647 91.4565 251.065 90.7255 250.856 89.8966C250.455 87.9588 252.22 86.0855 252.012 84.1242C251.828 82.397 250.192 81.0692 248.805 79.7758C247.419 78.4823 246.111 76.7706 246.751 75.1202L246.557 75.009L246.556 75.0119Z" fill="#090814"/>
<path d="M160.389 125.832L162.506 134.66C162.53 134.759 162.584 134.852 162.661 134.93L186.981 159.362C187.078 159.459 187.206 159.526 187.344 159.553C187.483 159.58 187.624 159.565 187.743 159.51C187.863 159.455 187.954 159.364 188.001 159.252C188.048 159.14 188.048 159.014 188.002 158.894L183.648 147.602C183.619 147.527 183.572 147.457 183.512 147.397L161.429 125.428C161.337 125.337 161.216 125.271 161.084 125.243C160.953 125.214 160.818 125.223 160.701 125.269C160.583 125.315 160.489 125.394 160.433 125.496C160.377 125.598 160.361 125.716 160.389 125.832Z" fill="#3F3D56"/>
<path d="M161.578 126.254L163.255 133.877L185.148 156.259L182.994 147.73L161.578 126.254Z" fill="#FF8B16"/>
<path d="M224.893 148.627C225.064 149.686 190.792 160.102 190.3 159.901C189.805 159.604 189.341 159.265 188.917 158.891C188.281 158.366 187.669 157.835 187.669 157.835L183.605 147.178L216.286 134.474C216.286 134.474 221.672 142.83 223.919 146.729C224.309 147.339 224.635 147.974 224.893 148.627Z" fill="#D6D6E3"/>
<path opacity="0.1" d="M188.815 147.128L192.777 156.077L208.27 150.787L203.619 142.07L188.815 147.128Z" fill="black"/>
<path opacity="0.1" d="M208.356 143.275L208.255 143.29L210.709 146.931L219.373 143.96L217.369 140.186L208.356 143.275Z" fill="black"/>
<path opacity="0.1" d="M224.849 148.037C225.026 149.148 190.255 160.072 189.756 159.859C189.253 159.545 188.782 159.188 188.352 158.794L223.86 146.04C224.256 146.682 224.587 147.35 224.849 148.037Z" fill="black"/>
<path d="M227.236 148.706C223.736 150.613 219.722 150.654 218.263 148.8C216.804 146.946 218.463 143.896 221.964 141.989C223.351 141.212 224.94 140.722 226.601 140.561L241.55 132.639L245.863 138.562L230.666 145.742C229.824 146.946 228.647 147.963 227.236 148.71L227.236 148.706Z" fill="#E5B6BD"/>
<path d="M260.681 98.8779C261.971 98.9661 263.224 99.2841 264.354 99.8104C265.484 100.337 266.465 101.059 267.231 101.929C267.997 102.798 268.53 103.795 268.793 104.851C269.057 105.906 269.045 106.997 268.759 108.049L262.519 130.984L233.811 144.965L230.278 137.484L249.857 125.343L250.905 106.045C250.96 105.034 251.259 104.042 251.785 103.129C252.31 102.216 253.051 101.401 253.963 100.732C254.876 100.063 255.94 99.5541 257.094 99.2357C258.248 98.9173 259.466 98.7959 260.678 98.8788L260.681 98.8779Z" fill="#FF8B16"/>
</g>
<defs>
<clipPath id="clip0_9_1046">
<rect width="452" height="208" fill="white"/>
</clipPath>
</defs>
</svg>
