<svg width="668" height="532" viewBox="0 0 668 532" fill="none" xmlns="http://www.w3.org/2000/svg">
<g clip-path="url(#clip0_4003_1042)">
<path d="M177.275 122.143L97.8215 111.55L113.9 30.1226L199.252 46.9762L177.275 122.143Z" fill="#2F2E41"/>
<path d="M100.898 474.414V138.494C100.898 132.407 105.85 127.454 111.938 127.454H656.858C662.946 127.454 667.898 132.407 667.898 138.494V474.414C667.898 480.501 662.946 485.454 656.858 485.454H111.938C105.85 485.454 100.898 480.501 100.898 474.414ZM665.898 138.494C665.898 133.501 661.851 129.454 656.858 129.454H111.938C106.946 129.454 102.898 133.501 102.898 138.494V474.414C102.898 479.407 106.946 483.454 111.938 483.454H499.264C591.294 483.454 665.898 408.85 665.898 316.82V138.494Z" fill="#3F3D56"/>
<path d="M612.727 177.751L604.497 173.852C607.873 178.563 610.781 185.921 612.338 191.775C614.975 186.322 619.225 179.649 623.432 175.663L614.734 177.901C620.094 151.633 640.253 132.775 663.338 132.775L663.665 131.826C639.552 131.826 618.199 150.423 612.727 177.751Z" fill="#3F3D56"/>
<path d="M650.606 217.775H598.606C596.401 217.775 594.606 215.981 594.606 213.775C594.606 211.57 596.401 209.775 598.606 209.775H650.606C652.812 209.775 654.606 211.57 654.606 213.775C654.606 215.981 652.812 217.775 650.606 217.775Z" fill="#FF8B16"/>
<path d="M496.216 247.818V353.818C496.216 363.192 488.59 370.818 479.216 370.818H373.216C363.842 370.818 356.216 363.192 356.216 353.818V247.818C356.216 238.444 363.842 230.818 373.216 230.818H479.216C488.59 230.818 496.216 238.444 496.216 247.818ZM472.64 368.818C484.556 368.818 494.216 359.159 494.216 347.243V300.377C494.216 263.066 463.969 232.818 426.657 232.818H373.216C364.932 232.818 358.216 239.534 358.216 247.818V339.029C358.216 355.481 371.553 368.818 388.005 368.818H472.64Z" fill="#3F3D56"/>
<path d="M440.326 274.111H406.105C405.243 274.111 404.541 273.409 404.541 272.546C404.541 271.683 405.243 270.981 406.105 270.981H440.326C441.189 270.981 441.89 271.683 441.89 272.546C441.89 273.409 441.189 274.111 440.326 274.111Z" fill="#3F3D56"/>
<path d="M440.326 307.474H406.105C405.243 307.474 404.541 306.772 404.541 305.909C404.541 305.046 405.243 304.345 406.105 304.345H440.326C441.189 304.345 441.89 305.046 441.89 305.909C441.89 306.772 441.189 307.474 440.326 307.474Z" fill="#3F3D56"/>
<path d="M423.326 353.474H389.105C388.243 353.474 387.541 352.772 387.541 351.909C387.541 351.046 388.243 350.345 389.105 350.345H423.326C424.189 350.345 424.89 351.046 424.89 351.909C424.89 352.772 424.189 353.474 423.326 353.474Z" fill="#3F3D56"/>
<path d="M458.689 290.803H387.742C386.88 290.803 386.178 290.101 386.178 289.238C386.178 288.375 386.88 287.674 387.742 287.674H458.689C459.552 287.674 460.254 288.375 460.254 289.238C460.254 290.101 459.552 290.803 458.689 290.803Z" fill="#3F3D56"/>
<path d="M183.62 302.62H66.345C76.1748 280.685 82.218 259.795 72.7709 243.179L183.62 236.753C178.08 259.184 177.403 281.198 183.62 302.62Z" fill="#FFB6B6"/>
<path d="M224.01 485.454H137.794C137.17 485.454 136.601 485.098 136.329 484.537L135.804 483.454L124.347 459.936C123.609 458.422 121.339 458.888 121.258 460.571L120.154 483.454L120.132 483.908C120.088 484.774 119.373 485.454 118.506 485.454H33.6197C32.7619 485.454 32.0508 484.787 31.9946 483.931C31.9841 483.772 31.9739 483.613 31.9643 483.454C26.5443 399.804 46.0343 343.104 57.4643 317.734L57.4743 317.724C61.9643 307.744 65.2243 302.614 65.2243 302.614L66.3543 302.604H66.3643L89.1943 302.204H89.2043L109.424 301.864L124.704 301.614L130.834 301.504H130.844L134.684 301.444L153.774 301.114L170.824 300.824L183.064 300.624H183.404L185.224 308.474V308.484L185.294 308.834V308.844L185.604 310.134L185.614 310.174L186.234 312.884V312.904L186.274 313.054V313.064L186.424 313.714L186.434 313.744L187.874 319.974L190.204 330.104L193.274 343.354L197.144 360.174L199.104 368.644L201.794 380.314L225.594 483.454C225.834 484.476 225.059 485.454 224.01 485.454Z" fill="#2F2E41"/>
<path d="M166.689 107.284L120.018 105.655L101.569 130.394L91.8623 132.502C77.3111 135.662 67.3292 149.082 68.4887 163.927L72.8983 266.775L74.8983 278.775L184.898 296.775L209.632 141.127L177.086 129.434L166.689 107.284Z" fill="#FF8B16"/>
<path d="M149.657 103.383C172.793 103.383 191.549 84.6266 191.549 61.4899C191.549 38.3532 172.793 19.5972 149.657 19.5972C126.52 19.5972 107.764 38.3532 107.764 61.4899C107.764 84.6266 126.52 103.383 149.657 103.383Z" fill="#FFB6B6"/>
<path d="M616.185 481.565L579.866 468.068C574.419 466.043 571.634 459.965 573.658 454.517L609.339 358.507C611.363 353.06 617.442 350.275 622.889 352.299L659.208 365.797C664.655 367.821 667.44 373.9 665.416 379.347C651.764 418.153 636.871 461.757 629.735 475.357C627.711 480.805 621.632 483.589 616.185 481.565Z" fill="#3F3D56"/>
<path d="M656.469 404.972C656.239 404.887 655.981 405.004 655.896 405.235L650.926 418.609C650.84 418.839 650.958 419.096 651.188 419.182C651.419 419.268 651.676 419.15 651.761 418.92L656.732 405.546C656.817 405.315 656.7 405.058 656.469 404.972Z" fill="#3F3D56"/>
<path d="M664.475 378.997L628.795 475.006C627.033 479.747 621.902 482.254 617.123 480.821L617.121 480.82C617.051 480.799 616.98 480.777 616.909 480.753C616.783 480.713 616.659 480.67 616.533 480.623C616.533 480.623 616.086 480.419 615.269 480.044C614.444 479.666 613.244 479.113 611.75 478.417C611.301 478.21 610.829 477.989 610.331 477.757C609.338 477.292 608.248 476.783 607.081 476.23C606.615 476.012 606.134 475.783 605.642 475.55C603.13 474.362 600.32 473.021 597.365 471.585C596.865 471.344 596.361 471.1 595.854 470.852C595.721 470.786 574.183 455.985 574.599 454.864L610.279 358.856C612.114 353.918 617.603 351.404 622.541 353.239L627.878 355.222C628.731 355.539 629.169 356.458 628.926 357.336C628.911 357.395 628.897 357.454 628.886 357.514C628.723 358.426 629.286 359.313 630.155 359.636L648.914 366.607C649.784 366.93 650.789 366.626 651.261 365.829C651.292 365.776 651.319 365.722 651.347 365.668C651.736 364.845 652.668 364.435 653.521 364.752L658.858 366.735C663.796 368.57 666.31 374.059 664.475 378.997Z" fill="#FF8B16"/>
<path d="M603.405 373.836C603.174 373.75 602.917 373.868 602.831 374.098L601.589 377.442C601.503 377.672 601.621 377.929 601.851 378.015C602.082 378.101 602.339 377.983 602.425 377.752L603.667 374.409C603.753 374.178 603.635 373.921 603.405 373.836Z" fill="#3F3D56"/>
<path d="M599.677 383.866C599.446 383.78 599.189 383.898 599.104 384.128L596.696 390.606C596.611 390.837 596.728 391.094 596.959 391.18C597.189 391.265 597.446 391.148 597.532 390.917L599.939 384.439C600.025 384.209 599.907 383.952 599.677 383.866Z" fill="#3F3D56"/>
<path d="M596.26 393.06C596.029 392.975 595.772 393.092 595.687 393.323L593.279 399.801C593.194 400.031 593.311 400.288 593.542 400.374C593.772 400.46 594.029 400.342 594.115 400.111L596.523 393.633C596.608 393.403 596.49 393.146 596.26 393.06Z" fill="#3F3D56"/>
<path d="M627.187 356.632L619.198 353.663C619.154 353.646 619.104 353.669 619.088 353.714L618.759 354.597C618.743 354.642 618.766 354.691 618.81 354.708L626.798 357.676C626.843 357.693 626.893 357.67 626.909 357.626L627.237 356.742C627.254 356.698 627.231 356.648 627.187 356.632Z" fill="#E6E6E6"/>
<path d="M654.22 367.808C654.713 367.808 655.112 367.409 655.112 366.916C655.112 366.424 654.713 366.024 654.22 366.024C653.728 366.024 653.328 366.424 653.328 366.916C653.328 367.409 653.728 367.808 654.22 367.808Z" fill="#E6E6E6"/>
<path d="M656.519 368.661C657.011 368.661 657.41 368.262 657.41 367.77C657.41 367.277 657.011 366.878 656.519 366.878C656.026 366.878 655.627 367.277 655.627 367.77C655.627 368.262 656.026 368.661 656.519 368.661Z" fill="#E6E6E6"/>
<path d="M658.817 369.516C659.31 369.516 659.709 369.117 659.709 368.624C659.709 368.132 659.31 367.732 658.817 367.732C658.325 367.732 657.926 368.132 657.926 368.624C657.926 369.117 658.325 369.516 658.817 369.516Z" fill="#E6E6E6"/>
<path d="M527.137 178.394H495.775C491.74 178.394 488.456 175.11 488.456 171.075V135.712C488.456 131.677 491.739 128.394 495.775 128.394H527.137C531.173 128.394 534.456 131.677 534.456 135.712V171.075C534.456 175.11 531.173 178.394 527.137 178.394Z" fill="white"/>
<path d="M527.137 178.394H495.775C491.74 178.394 488.456 175.11 488.456 171.075C486.879 158.053 486.445 145.926 488.456 135.712C488.456 131.677 491.74 128.394 495.775 128.394H527.137C531.173 128.394 534.456 131.677 534.456 135.712V171.075C534.456 175.11 531.173 178.394 527.137 178.394ZM495.775 129.394C492.291 129.394 489.456 132.228 489.456 135.712V171.075C489.456 174.559 492.291 177.394 495.775 177.394H527.137C530.622 177.394 533.456 174.559 533.456 171.075V135.712C533.456 132.228 530.622 129.394 527.137 129.394H495.775Z" fill="#3F3D56"/>
<path d="M523.969 149.894H498.127C497.031 149.894 496.14 149.002 496.14 147.906C496.14 146.81 497.031 145.918 498.127 145.918H523.969C525.065 145.918 525.956 146.81 525.956 147.906C525.956 149.002 525.065 149.894 523.969 149.894Z" fill="#FF8B16"/>
<path d="M523.969 160.894H498.127C497.031 160.894 496.14 160.002 496.14 158.906C496.14 157.81 497.031 156.918 498.127 156.918H523.969C525.065 156.918 525.956 157.81 525.956 158.906C525.956 160.002 525.065 160.894 523.969 160.894Z" fill="#FF8B16"/>
<path d="M523.969 138.894H498.127C497.031 138.894 496.14 138.002 496.14 136.906C496.14 135.81 497.031 134.918 498.127 134.918H523.969C525.065 134.918 525.956 135.81 525.956 136.906C525.956 138.002 525.065 138.894 523.969 138.894Z" fill="#FF8B16"/>
<path d="M135.413 116.425C137.708 120.752 140.791 124.202 144.059 126.435L163.323 169.041L183.329 159.281L161.633 117.112C161.618 113.154 160.49 108.667 158.195 104.34C152.951 94.4536 143.599 89.1447 137.308 92.4819C131.017 95.8191 130.168 106.539 135.413 116.425Z" fill="#FFB6B6"/>
<path d="M178.79 143.28C178.79 143.28 208.131 127.905 217.235 144.049C225.002 157.823 230.614 226.75 232.095 246.689C232.355 250.189 231.442 253.664 229.499 256.587C223.745 265.242 211.34 266.067 204.491 258.25L145.035 141.183L173.237 127.78L180.135 144.485L178.79 143.28Z" fill="#FF8B16"/>
<path d="M241.52 308.202C242.164 307.289 242.544 306.176 242.544 304.974V202.38C242.544 199.284 240.034 196.774 236.938 196.774H81.8581C78.7622 196.774 76.2524 199.284 76.2524 202.38V304.974C76.2524 306.176 76.6321 307.289 77.2763 308.202H57.9077V313.58C125.248 317.346 192.908 317.346 260.889 313.58V308.202H241.52Z" fill="#3F3D56"/>
<path d="M408.137 531.394H376.775C372.74 531.394 369.456 528.11 369.456 524.075V488.712C369.456 484.677 372.739 481.394 376.775 481.394H408.137C412.173 481.394 415.456 484.677 415.456 488.712V524.075C415.456 528.11 412.173 531.394 408.137 531.394Z" fill="white"/>
<path d="M408.137 531.394H376.775C372.74 531.394 369.456 528.11 369.456 524.075C367.879 511.053 367.445 498.926 369.456 488.712C369.456 484.677 372.74 481.394 376.775 481.394H408.137C412.173 481.394 415.456 484.677 415.456 488.712V524.075C415.456 528.11 412.173 531.394 408.137 531.394ZM376.775 482.394C373.291 482.394 370.456 485.228 370.456 488.712V524.075C370.456 527.559 373.291 530.394 376.775 530.394H408.137C411.622 530.394 414.456 527.559 414.456 524.075V488.712C414.456 485.228 411.622 482.394 408.137 482.394H376.775Z" fill="#3F3D56"/>
<path d="M404.969 502.894H379.127C378.031 502.894 377.14 502.002 377.14 500.906C377.14 499.81 378.031 498.918 379.127 498.918H404.969C406.065 498.918 406.956 499.81 406.956 500.906C406.956 502.002 406.065 502.894 404.969 502.894Z" fill="#FF8B16"/>
<path d="M404.969 513.894H379.127C378.031 513.894 377.14 513.002 377.14 511.906C377.14 510.81 378.031 509.918 379.127 509.918H404.969C406.065 509.918 406.956 510.81 406.956 511.906C406.956 513.002 406.065 513.894 404.969 513.894Z" fill="#FF8B16"/>
<path d="M404.969 491.894H379.127C378.031 491.894 377.14 491.002 377.14 489.906C377.14 488.81 378.031 487.918 379.127 487.918H404.969C406.065 487.918 406.956 488.81 406.956 489.906C406.956 491.002 406.065 491.894 404.969 491.894Z" fill="#FF8B16"/>
<path d="M134.539 294.628C129.64 294.654 125.153 295.784 121.66 297.644L74.9789 294.943L74.3435 317.194L121.765 317.538C125.278 319.36 129.776 320.443 134.675 320.417C145.866 320.358 154.907 314.537 154.869 307.416C154.832 300.294 145.729 294.569 134.539 294.628Z" fill="#FFB6B6"/>
<path d="M89.6892 132.578C89.6892 132.578 50.0068 128.157 39.8982 152.775C32.1763 171.581 12.1153 244.875 0.857915 286.838C-3.25782 302.18 7.93125 317.37 23.8031 317.999L93.8982 320.775L97.9526 289.766L47.8982 281.775L75.8982 197.775L89.6892 132.578Z" fill="#FF8B16"/>
<path d="M191.56 29.1484C193.575 18.9464 181.211 14.9841 171.952 10.2503L164.091 3.60156C155.85 -0.61181 146.213 -1.15361 137.552 2.10938L110.52 11.1075C98.2501 15.7297 93.9687 26.7328 86.8982 37.7747L75.0464 53.5971C68.0861 64.4669 70.167 81.4369 71.7992 94.2406L72.4832 99.6058L65.9714 115.177L116.016 124.112L126.103 100.081L119.808 88.6594C117.575 84.6068 118.468 79.5455 121.955 76.5029C134.496 65.5584 136.898 46.7747 136.898 46.7747L147.5 56.124C155.204 59.0146 162.317 60.505 168.847 60.6182C176.029 60.7426 182.506 59.2012 188.292 56.0244L189.31 71.5151C186.32 89.8277 181.856 93.8545 161.747 107.864L185.95 131.998L187.084 122.17C189.782 98.7918 201.44 82.5209 204.596 63.7116C206.778 50.7054 201.741 37.5317 191.56 29.1484Z" fill="#2F2E41"/>
</g>
<defs>
<clipPath id="clip0_4003_1042">
<rect width="667.898" height="531.394" fill="white"/>
</clipPath>
</defs>
</svg>
