<svg width="800" height="639" viewBox="0 0 800 639" fill="none" xmlns="http://www.w3.org/2000/svg">
<g clip-path="url(#clip0_4003_977)">
<path d="M469.925 179.164C471.636 160.745 476.359 142.732 483.908 125.844C486.011 121.144 488.327 116.548 490.855 112.055C490.98 111.82 491.01 111.546 490.937 111.29C490.865 111.033 490.696 110.815 490.466 110.681C490.236 110.546 489.963 110.506 489.705 110.569C489.446 110.631 489.221 110.792 489.078 111.016C479.887 127.38 473.448 145.144 470.019 163.596C469.065 168.749 468.348 173.938 467.868 179.164C467.745 180.482 469.804 180.474 469.925 179.164Z" fill="#E6E6E6"/>
<path d="M495.838 115.355C503.036 115.355 508.871 109.52 508.871 102.322C508.871 95.1241 503.036 89.2891 495.838 89.2891C488.64 89.2891 482.805 95.1241 482.805 102.322C482.805 109.52 488.64 115.355 495.838 115.355Z" fill="#E6E6E6"/>
<path d="M471.26 179.511C472.37 167.562 475.434 155.876 480.331 144.92C481.696 141.871 483.198 138.889 484.837 135.975C484.921 135.822 484.942 135.643 484.896 135.475C484.849 135.307 484.739 135.164 484.589 135.076C484.438 134.988 484.26 134.963 484.091 135.005C483.922 135.047 483.776 135.153 483.684 135.301C477.721 145.917 473.544 157.441 471.319 169.412C470.7 172.755 470.234 176.122 469.919 179.512C469.843 180.366 471.179 180.36 471.26 179.511Z" fill="#E6E6E6"/>
<path d="M488.07 138.114C492.74 138.114 496.525 134.329 496.525 129.659C496.525 124.99 492.74 121.204 488.07 121.204C483.4 121.204 479.615 124.99 479.615 129.659C479.615 134.329 483.4 138.114 488.07 138.114Z" fill="#E6E6E6"/>
<path d="M469.572 178.712C463.097 168.608 458.326 157.509 455.449 145.858C454.649 142.615 453.999 139.34 453.5 136.033C453.47 135.863 453.376 135.711 453.236 135.609C453.097 135.507 452.924 135.463 452.753 135.486C452.582 135.509 452.427 135.598 452.319 135.733C452.212 135.868 452.161 136.039 452.177 136.211C454.005 148.249 457.799 159.904 463.408 170.711C464.976 173.728 466.68 176.668 468.52 179.533C468.984 180.256 470.033 179.433 469.573 178.712H469.572Z" fill="#E6E6E6"/>
<path d="M452.169 137.521C456.839 137.521 460.624 133.735 460.624 129.066C460.624 124.396 456.839 120.611 452.169 120.611C447.499 120.611 443.714 124.396 443.714 129.066C443.714 133.735 447.499 137.521 452.169 137.521Z" fill="#E6E6E6"/>
<path d="M443.617 186.19V169.58C443.619 167.929 444.276 166.345 445.444 165.177C446.612 164.01 448.195 163.353 449.847 163.351H488.608C490.259 163.353 491.843 164.01 493.011 165.178C494.178 166.345 494.835 167.929 494.837 169.58V186.19C494.835 187.842 494.178 189.425 493.01 190.593C491.842 191.76 490.259 192.417 488.607 192.419H449.847C448.195 192.417 446.612 191.761 445.444 190.593C444.276 189.425 443.619 187.842 443.617 186.19Z" fill="#F2F2F2"/>
<path d="M487.223 80.291H470.612C468.961 80.2891 467.377 79.6323 466.21 78.4645C465.042 77.2967 464.385 75.7134 464.383 74.062V6.22998C464.385 4.57834 465.042 2.99489 466.21 1.8271C467.378 0.659311 468.961 0.00256466 470.613 0.000976562H487.223C488.874 0.00309338 490.458 0.660038 491.625 1.82774C492.793 2.99545 493.45 4.5786 493.452 6.22998V74.062C493.45 75.7134 492.793 77.2967 491.626 78.4645C490.458 79.6323 488.875 80.2891 487.223 80.291Z" fill="#F2F2F2"/>
<path d="M492.76 13.1519H465.074V18.6889H492.76V13.1519Z" fill="#CCCCCC"/>
<path d="M492.76 56.0659H465.074V61.6029H492.76V56.0659Z" fill="#CCCCCC"/>
<path d="M528.752 80.291H512.141C510.49 80.2891 508.906 79.6323 507.738 78.4645C506.571 77.2967 505.914 75.7134 505.912 74.062V6.22998C505.914 4.57852 506.571 2.99522 507.738 1.82745C508.906 0.659691 510.49 0.00282932 512.141 0.000976562H528.752C530.404 0.00282881 531.987 0.659658 533.155 1.82739C534.323 2.99513 534.98 4.57842 534.982 6.22998V74.062C534.98 75.7135 534.323 77.2968 533.155 78.4646C531.987 79.6323 530.404 80.2891 528.752 80.291Z" fill="#F2F2F2"/>
<path d="M534.29 13.1519H506.604V18.6889H534.29V13.1519Z" fill="#CCCCCC"/>
<path d="M534.29 56.0659H506.604V61.6029H534.29V56.0659Z" fill="#CCCCCC"/>
<path d="M570.282 80.291H553.671C552.019 80.2894 550.436 79.6327 549.268 78.4649C548.1 77.2971 547.443 75.7136 547.441 74.062V6.22998C547.443 4.57834 548.1 2.99489 549.268 1.8271C550.436 0.659311 552.019 0.00256466 553.671 0.000976562H570.282C571.934 0.00282932 573.517 0.659691 574.685 1.82745C575.852 2.99522 576.509 4.57852 576.511 6.22998V74.062C576.509 75.7134 575.852 77.2967 574.685 78.4645C573.517 79.6323 571.934 80.2891 570.282 80.291Z" fill="#F2F2F2"/>
<path d="M575.819 13.1519H548.133V18.6889H575.819V13.1519Z" fill="#CCCCCC"/>
<path d="M575.819 56.0659H548.133V61.6029H575.819V56.0659Z" fill="#CCCCCC"/>
<path d="M592.431 192.422H575.82C574.169 192.42 572.585 191.763 571.418 190.595C570.25 189.427 569.593 187.844 569.591 186.193V118.361C569.593 116.709 570.25 115.126 571.418 113.958C572.586 112.791 574.169 112.134 575.821 112.132H592.431C594.083 112.134 595.666 112.791 596.834 113.959C598.002 115.127 598.658 116.71 598.66 118.362V186.194C598.658 187.845 598.001 189.428 596.833 190.596C595.665 191.763 594.082 192.42 592.431 192.422Z" fill="#F2F2F2"/>
<path d="M597.968 125.282H570.282V130.819H597.968V125.282Z" fill="#CCCCCC"/>
<path d="M597.968 168.196H570.282V173.733H597.968V168.196Z" fill="#CCCCCC"/>
<path d="M633.962 192.422H617.35C615.699 192.42 614.115 191.763 612.948 190.595C611.78 189.427 611.123 187.844 611.121 186.193V118.361C611.123 116.709 611.78 115.126 612.948 113.958C614.116 112.791 615.699 112.134 617.351 112.132H633.962C635.614 112.134 637.197 112.791 638.365 113.959C639.533 115.127 640.189 116.71 640.191 118.362V186.194C640.189 187.845 639.532 189.429 638.364 190.596C637.196 191.764 635.612 192.421 633.961 192.423L633.962 192.422Z" fill="#F2F2F2"/>
<path d="M639.498 125.282H611.812V130.819H639.498V125.282Z" fill="#CCCCCC"/>
<path d="M639.498 168.196H611.812V173.733H639.498V168.196Z" fill="#CCCCCC"/>
<path d="M675.492 192.422H658.881C657.23 192.42 655.646 191.763 654.478 190.595C653.311 189.428 652.654 187.844 652.652 186.193V118.361C652.654 116.709 653.311 115.126 654.478 113.958C655.646 112.791 657.23 112.134 658.881 112.132H675.492C677.144 112.134 678.727 112.791 679.895 113.959C681.063 115.127 681.719 116.71 681.721 118.362V186.194C681.719 187.845 681.062 189.429 679.894 190.596C678.726 191.764 677.143 192.421 675.491 192.423L675.492 192.422Z" fill="#F2F2F2"/>
<path d="M681.028 125.282H653.342V130.819H681.028V125.282Z" fill="#CCCCCC"/>
<path d="M681.028 168.196H653.342V173.733H681.028V168.196Z" fill="#CCCCCC"/>
<path d="M483.071 304.552H466.46C464.808 304.55 463.225 303.893 462.057 302.726C460.89 301.558 460.233 299.975 460.231 298.323V230.491C460.233 228.84 460.89 227.256 462.057 226.089C463.225 224.921 464.808 224.264 466.46 224.262H483.071C484.722 224.264 486.306 224.921 487.473 226.089C488.641 227.257 489.298 228.84 489.3 230.491V298.323C489.298 299.975 488.641 301.558 487.473 302.725C486.306 303.893 484.722 304.55 483.071 304.552Z" fill="#F2F2F2"/>
<path d="M488.607 237.412H460.921V242.949H488.607V237.412Z" fill="#CCCCCC"/>
<path d="M488.607 280.326H460.921V285.863H488.607V280.326Z" fill="#CCCCCC"/>
<path d="M524.6 304.552H507.989C506.338 304.55 504.754 303.893 503.587 302.725C502.419 301.558 501.762 299.975 501.76 298.323V230.491C501.762 228.84 502.419 227.256 503.586 226.089C504.754 224.921 506.338 224.264 507.989 224.262H524.6C526.252 224.264 527.835 224.921 529.003 226.089C530.17 227.256 530.827 228.84 530.829 230.491V298.323C530.827 299.975 530.17 301.558 529.003 302.726C527.835 303.893 526.252 304.55 524.6 304.552Z" fill="#F2F2F2"/>
<path d="M530.136 237.412H502.45V242.949H530.136V237.412Z" fill="#CCCCCC"/>
<path d="M530.136 280.326H502.45V285.863H530.136V280.326Z" fill="#CCCCCC"/>
<path d="M566.13 304.552H549.519C547.867 304.55 546.284 303.894 545.116 302.726C543.948 301.558 543.291 299.975 543.289 298.323V230.491C543.291 228.84 543.948 227.256 545.116 226.088C546.284 224.921 547.867 224.264 549.519 224.262H566.13C567.781 224.264 569.365 224.921 570.532 226.089C571.7 227.257 572.357 228.84 572.359 230.491V298.323C572.357 299.975 571.7 301.558 570.532 302.725C569.365 303.893 567.781 304.55 566.13 304.552Z" fill="#F2F2F2"/>
<path d="M571.667 237.412H543.981V242.949H571.667V237.412Z" fill="#CCCCCC"/>
<path d="M571.667 280.326H543.981V285.863H571.667V280.326Z" fill="#CCCCCC"/>
<path d="M611.813 80.291H595.202C593.551 80.2891 591.967 79.6323 590.799 78.4645C589.632 77.2967 588.975 75.7134 588.973 74.062V6.22998C588.975 4.57834 589.632 2.99489 590.8 1.8271C591.968 0.659311 593.551 0.00256466 595.203 0.000976562H611.813C613.465 0.00282932 615.048 0.659691 616.216 1.82745C617.383 2.99522 618.04 4.57852 618.042 6.22998V74.062C618.04 75.7134 617.383 77.2967 616.216 78.4645C615.048 79.6323 613.465 80.2891 611.813 80.291Z" fill="#F2F2F2"/>
<path d="M617.349 13.1519H589.663V18.6889H617.349V13.1519Z" fill="#CCCCCC"/>
<path d="M617.349 56.0659H589.663V61.6029H617.349V56.0659Z" fill="#CCCCCC"/>
<path d="M653.342 80.291H636.731C635.079 80.2894 633.496 79.6327 632.328 78.4649C631.16 77.2971 630.503 75.7136 630.501 74.062V6.22998C630.503 4.57852 631.16 2.99522 632.327 1.82745C633.495 0.659691 635.079 0.00282932 636.73 0.000976562H653.342C654.993 0.00309338 656.576 0.660038 657.744 1.82774C658.912 2.99545 659.569 4.5786 659.571 6.22998V74.062C659.569 75.7134 658.912 77.2967 657.745 78.4645C656.577 79.6323 654.993 80.2891 653.342 80.291Z" fill="#F2F2F2"/>
<path d="M658.879 13.1519H631.193V18.6889H658.879V13.1519Z" fill="#CCCCCC"/>
<path d="M658.879 56.0659H631.193V61.6029H658.879V56.0659Z" fill="#CCCCCC"/>
<path d="M694.872 80.291H678.261C676.61 80.2891 675.026 79.6323 673.858 78.4645C672.691 77.2967 672.034 75.7134 672.032 74.062V6.22998C672.034 4.5786 672.691 2.99545 673.859 1.82774C675.026 0.660038 676.61 0.00309338 678.261 0.000976562H694.872C696.523 0.00309338 698.107 0.660038 699.274 1.82774C700.442 2.99545 701.099 4.5786 701.101 6.22998V74.062C701.099 75.7134 700.442 77.2967 699.275 78.4645C698.107 79.6323 696.523 80.2891 694.872 80.291Z" fill="#F2F2F2"/>
<path d="M700.408 13.1519H672.722V18.6889H700.408V13.1519Z" fill="#CCCCCC"/>
<path d="M700.408 56.0659H672.722V61.6029H700.408V56.0659Z" fill="#CCCCCC"/>
<path d="M736.401 80.291H719.789C718.138 80.2891 716.554 79.6323 715.387 78.4645C714.219 77.2967 713.562 75.7134 713.56 74.062V6.22998C713.562 4.57852 714.219 2.99522 715.387 1.82745C716.554 0.659691 718.138 0.00282932 719.789 0.000976562H736.401C738.052 0.00309338 739.636 0.660038 740.803 1.82774C741.971 2.99545 742.628 4.5786 742.63 6.22998V74.062C742.628 75.7133 741.971 77.2965 740.803 78.4642C739.636 79.6319 738.052 80.2889 736.401 80.291Z" fill="#F2F2F2"/>
<path d="M741.938 13.1519H714.252V18.6889H741.938V13.1519Z" fill="#CCCCCC"/>
<path d="M741.938 56.0659H714.252V61.6029H741.938V56.0659Z" fill="#CCCCCC"/>
<path d="M798.615 82.3681H404.083C403.716 82.3681 403.364 82.2223 403.104 81.9626C402.844 81.703 402.698 81.3508 402.698 80.9836C402.698 80.6164 402.844 80.2643 403.104 80.0046C403.364 79.745 403.716 79.5991 404.083 79.5991H798.615C798.982 79.5991 799.334 79.745 799.594 80.0046C799.854 80.2643 800 80.6164 800 80.9836C800 81.3508 799.854 81.703 799.594 81.9626C799.334 82.2223 798.982 82.3681 798.615 82.3681Z" fill="#CCCCCC"/>
<path d="M798.615 194.498H404.083C403.716 194.498 403.364 194.352 403.104 194.092C402.844 193.833 402.698 193.481 402.698 193.113C402.698 192.746 402.844 192.394 403.104 192.135C403.364 191.875 403.716 191.729 404.083 191.729H798.615C798.982 191.729 799.334 191.875 799.594 192.135C799.854 192.394 800 192.746 800 193.113C800 193.481 799.854 193.833 799.594 194.092C799.334 194.352 798.982 194.498 798.615 194.498Z" fill="#CCCCCC"/>
<path d="M798.615 306.629H404.083C403.716 306.629 403.364 306.483 403.104 306.223C402.844 305.964 402.698 305.612 402.698 305.244C402.698 304.877 402.844 304.525 403.104 304.265C403.364 304.006 403.716 303.86 404.083 303.86H798.615C798.982 303.86 799.334 304.006 799.594 304.265C799.854 304.525 800 304.877 800 305.244C800 305.612 799.854 305.964 799.594 306.223C799.334 306.483 798.982 306.629 798.615 306.629Z" fill="#CCCCCC"/>
<path d="M687.006 291.533C687.717 283.873 689.682 276.382 692.821 269.359C693.696 267.404 694.659 265.493 695.71 263.625C695.767 263.527 695.783 263.41 695.755 263.3C695.726 263.191 695.655 263.097 695.557 263.039C695.459 262.982 695.342 262.966 695.232 262.995C695.122 263.024 695.028 263.095 694.971 263.193C691.149 269.998 688.471 277.385 687.045 285.059C686.645 287.202 686.347 289.36 686.15 291.533C686.099 292.085 686.955 292.078 687.006 291.533Z" fill="#E6E6E6"/>
<path d="M697.782 264.998C700.775 264.998 703.202 262.572 703.202 259.578C703.202 256.585 700.775 254.158 697.782 254.158C694.789 254.158 692.362 256.585 692.362 259.578C692.362 262.572 694.789 264.998 697.782 264.998Z" fill="#E6E6E6"/>
<path d="M699.673 291.64C700.783 279.691 703.847 268.005 708.744 257.049C710.109 254.001 711.611 251.019 713.251 248.104C713.335 247.952 713.356 247.772 713.31 247.604C713.263 247.437 713.153 247.293 713.003 247.206C712.853 247.118 712.674 247.092 712.505 247.134C712.336 247.176 712.19 247.282 712.098 247.43C706.135 258.046 701.958 269.57 699.733 281.541C699.114 284.885 698.648 288.251 698.333 291.641C698.256 292.495 699.592 292.489 699.673 291.64Z" fill="#E6E6E6"/>
<path d="M716.483 250.244C721.153 250.244 724.938 246.459 724.938 241.789C724.938 237.119 721.153 233.334 716.483 233.334C711.813 233.334 708.028 237.119 708.028 241.789C708.028 246.459 711.813 250.244 716.483 250.244Z" fill="#E6E6E6"/>
<path d="M697.986 290.842C691.511 280.737 686.74 269.638 683.863 257.988C683.063 254.744 682.413 251.469 681.914 248.163C681.884 247.993 681.79 247.841 681.651 247.739C681.511 247.637 681.338 247.593 681.167 247.616C680.996 247.639 680.841 247.728 680.733 247.863C680.626 247.998 680.575 248.169 680.591 248.341C682.419 260.378 686.213 272.034 691.822 282.841C693.39 285.857 695.094 288.798 696.934 291.663C697.398 292.386 698.447 291.563 697.987 290.842H697.986Z" fill="#E6E6E6"/>
<path d="M680.583 249.651C685.253 249.651 689.038 245.866 689.038 241.196C689.038 236.527 685.253 232.741 680.583 232.741C675.913 232.741 672.128 236.527 672.128 241.196C672.128 245.866 675.913 249.651 680.583 249.651Z" fill="#E6E6E6"/>
<path d="M672.031 298.321V281.711C672.033 280.06 672.69 278.476 673.858 277.309C675.025 276.141 676.609 275.484 678.26 275.482H717.022C718.673 275.484 720.257 276.141 721.424 277.308C722.592 278.476 723.249 280.059 723.251 281.711V298.321C723.249 299.972 722.592 301.556 721.424 302.723C720.257 303.891 718.673 304.548 717.022 304.55H678.261C676.609 304.548 675.026 303.891 673.858 302.724C672.69 301.556 672.033 299.972 672.031 298.321Z" fill="#F2F2F2"/>
<path d="M389.59 169.395C385.304 154.507 376.976 141.098 365.53 130.657C354.085 120.216 339.969 113.151 324.751 110.247C309.533 107.343 293.808 108.714 279.321 114.207C264.835 119.7 252.155 129.101 242.688 141.365C233.222 153.629 227.339 168.277 225.695 183.682C224.05 199.087 226.706 214.647 233.37 228.634C240.034 242.62 250.443 254.486 263.443 262.914C276.443 271.342 291.524 276.002 307.012 276.377L321.805 282.599L300.841 360.442L408.952 380.811L452.888 267.718C452.888 267.718 389.11 268.913 372.829 246.926C381.814 236.396 388.048 223.802 390.973 210.271C393.898 196.741 393.423 182.697 389.59 169.395Z" fill="#ED9DA0"/>
<path d="M0 560.821L168.265 638.772L331.681 610.411L159.511 550.903L0 560.821Z" fill="#090814"/>
<path d="M158.58 531.993L319.58 451.631L334.648 486.483L180.784 576.244C177.002 588.264 167.584 599.485 154.084 606.261C130.459 618.116 103.355 611.876 93.544 592.325C83.733 572.774 94.931 547.314 118.556 535.46C132.056 528.685 146.683 527.841 158.58 531.993Z" fill="#ED9DA0"/>
<path d="M431.789 266.031C431.789 266.031 416.079 347.505 361.221 345.817C306.363 344.129 316.49 305.306 316.49 305.306L264.674 334.423C264.674 334.423 242.22 366.072 242.22 405.739L226.184 482.539L203.398 506.172L270.916 559.342L305.516 510.391L340.116 615.044L591.198 625.675L586.562 409.956C586.562 409.956 573.062 306.147 515.668 285.048C458.274 263.949 431.789 266.028 431.789 266.028V266.031Z" fill="#FF8B16"/>
<path d="M292.133 135.633C292.133 135.633 259.233 165.403 225.543 160.702C191.853 156.001 185.59 144.25 185.59 139.55C185.59 139.55 185.59 141.117 194.99 144.25L198.907 110.563C198.907 110.563 203.607 119.399 220.843 122.423C220.843 122.423 205.958 116.204 220.843 103.982C220.843 103.982 228.677 110.562 235.728 110.562C235.728 110.562 274.899 57.2902 352.456 90.9772L359.507 94.8942L368.607 94.1032L377.528 93.3272C377.528 93.3272 397.11 116.048 395.543 131.716C393.976 147.384 423.695 226.082 372.407 250.189C372.407 250.189 384.575 180.289 363.423 196.739C342.271 213.189 328.953 187.339 328.953 187.339L292.133 135.634V135.633Z" fill="#090814"/>
<path d="M287.709 552.031L467.609 548.284L476.309 610.118L288.841 601.527C280.279 610.773 266.966 616.886 251.864 617.232C225.439 617.838 203.611 600.602 203.109 578.732C202.607 556.862 223.622 538.643 250.047 538.032C265.147 537.686 278.729 543.182 287.705 552.025L287.709 552.031Z" fill="#ED9DA0"/>
<path d="M466.717 415.023C466.717 415.023 460.809 452.158 478.533 464.817C478.533 464.817 472.625 510.392 486.973 524.739C486.973 524.739 460.607 525.807 465.773 539.62C465.773 539.62 427.051 533.178 432.115 549.214C432.115 549.214 467.949 592.222 459.315 620.091L576.434 614.201L589.505 546.765" fill="#FF8B16"/>
</g>
<defs>
<clipPath id="clip0_4003_977">
<rect width="800" height="638.772" fill="white"/>
</clipPath>
</defs>
</svg>
