<svg width="960" height="700" viewBox="0 0 960 700" fill="none" xmlns="http://www.w3.org/2000/svg">
<path d="M98.3968 191.084C100.222 171.439 105.262 152.228 113.314 134.216C115.558 129.203 118.028 124.301 120.723 119.509C120.862 119.258 120.898 118.961 120.821 118.684C120.745 118.407 120.563 118.171 120.315 118.026C120.066 117.881 119.771 117.839 119.492 117.909C119.213 117.979 118.973 118.156 118.823 118.401C109.02 135.854 102.153 154.8 98.4958 174.48C97.4785 179.976 96.7138 185.509 96.2018 191.08C96.0718 192.49 98.2678 192.481 98.3968 191.084Z" fill="#E6E6E6"/>
<path d="M126.035 123.03C133.712 123.03 139.935 116.807 139.935 109.13C139.935 101.453 133.712 95.23 126.035 95.23C118.358 95.23 112.135 101.453 112.135 109.13C112.135 116.807 118.358 123.03 126.035 123.03Z" fill="#E6E6E6"/>
<path d="M99.8208 191.454C101.004 178.71 104.273 166.246 109.496 154.561C110.952 151.309 112.554 148.129 114.303 145.02C114.395 144.857 114.42 144.665 114.371 144.484C114.322 144.303 114.204 144.149 114.043 144.054C113.881 143.96 113.689 143.933 113.508 143.979C113.326 144.025 113.17 144.141 113.074 144.301C106.715 155.624 102.26 167.915 99.8868 180.682C99.2268 184.248 98.7308 187.838 98.3988 191.454C98.3098 192.366 99.7338 192.36 99.8208 191.454Z" fill="#E6E6E6"/>
<path d="M117.748 147.302C122.728 147.302 126.765 143.265 126.765 138.285C126.765 133.305 122.728 129.268 117.748 129.268C112.768 129.268 108.731 133.305 108.731 138.285C108.731 143.265 112.768 147.302 117.748 147.302Z" fill="#E6E6E6"/>
<path d="M98.0208 190.6C91.1154 179.823 86.0267 167.986 82.9578 155.56C82.1058 152.101 81.4131 148.608 80.8798 145.081C80.8513 144.897 80.7517 144.731 80.6024 144.619C80.453 144.508 80.2659 144.459 80.0811 144.484C79.8963 144.509 79.7286 144.605 79.6141 144.752C79.4996 144.9 79.4475 145.086 79.4688 145.271C81.4184 158.111 85.4654 170.544 91.4478 182.071C93.1205 185.288 94.9378 188.425 96.8998 191.48C97.3928 192.249 98.5138 191.369 98.0208 190.6Z" fill="#E6E6E6"/>
<path d="M79.4557 146.67C84.4357 146.67 88.4727 142.633 88.4727 137.653C88.4727 132.673 84.4357 128.636 79.4557 128.636C74.4758 128.636 70.4387 132.673 70.4387 137.653C70.4387 142.633 74.4758 146.67 79.4557 146.67Z" fill="#E6E6E6"/>
<path d="M70.3379 198.58V180.863C70.34 179.101 71.0407 177.413 72.2862 176.167C73.5317 174.922 75.2204 174.221 76.9819 174.219H118.322C120.083 174.221 121.772 174.921 123.018 176.167C124.263 177.412 124.964 179.101 124.966 180.863V198.58C124.964 200.341 124.263 202.03 123.018 203.275C121.772 204.521 120.083 205.222 118.322 205.224H76.9819C75.2203 205.222 73.5315 204.521 72.2859 203.276C71.0403 202.03 70.3397 200.341 70.3379 198.58Z" fill="#F2F2F2"/>
<path d="M116.846 85.634H99.1279C97.3663 85.6321 95.6775 84.9316 94.4319 83.686C93.1863 82.4404 92.4857 80.7515 92.4839 78.99V6.644C92.4857 4.88247 93.1863 3.19362 94.4319 1.94803C95.6775 0.702438 97.3663 0.00185299 99.1279 0H116.845C118.606 0.00185299 120.295 0.702438 121.541 1.94803C122.786 3.19362 123.487 4.88247 123.489 6.644V78.99C123.487 80.7513 122.786 82.4398 121.541 83.6853C120.296 84.9308 118.607 85.6316 116.846 85.634Z" fill="#F2F2F2"/>
<path d="M122.752 14.0259H93.2229V19.9319H122.752V14.0259Z" fill="#CCCCCC"/>
<path d="M122.752 59.7949H93.2229V65.7009H122.752V59.7949Z" fill="#CCCCCC"/>
<path d="M161.139 85.634H143.421C141.659 85.6321 139.97 84.9316 138.725 83.686C137.479 82.4404 136.779 80.7515 136.777 78.99V6.644C136.779 4.88247 137.479 3.19362 138.725 1.94803C139.97 0.702438 141.659 0.00185299 143.421 0H161.138C162.899 0.00185299 164.588 0.702438 165.834 1.94803C167.079 3.19362 167.78 4.88247 167.782 6.644V78.99C167.78 80.7513 167.08 82.44 165.834 83.6856C164.589 84.9312 162.9 85.6319 161.139 85.634Z" fill="#F2F2F2"/>
<path d="M167.046 14.0259H137.517V19.9319H167.046V14.0259Z" fill="#CCCCCC"/>
<path d="M167.046 59.7949H137.517V65.7009H167.046V59.7949Z" fill="#CCCCCC"/>
<path d="M205.433 85.634H187.715C185.953 85.6321 184.264 84.9316 183.019 83.686C181.773 82.4404 181.073 80.7515 181.071 78.99V6.644C181.073 4.88255 181.774 3.19385 183.019 1.94832C184.265 0.702785 185.953 0.00211713 187.715 0H205.432C207.193 0.00185299 208.882 0.702438 210.128 1.94803C211.373 3.19362 212.074 4.88247 212.076 6.644V78.99C212.074 80.7513 211.373 82.44 210.128 83.6856C208.883 84.9312 207.194 85.6319 205.433 85.634Z" fill="#F2F2F2"/>
<path d="M211.339 14.0259H181.81V19.9319H211.339V14.0259Z" fill="#CCCCCC"/>
<path d="M211.339 59.7949H181.81V65.7009H211.339V59.7949Z" fill="#CCCCCC"/>
<path d="M229.057 205.226H211.339C209.577 205.224 207.889 204.523 206.643 203.277C205.398 202.032 204.697 200.343 204.695 198.582V126.236C204.697 124.474 205.398 122.786 206.643 121.54C207.889 120.295 209.577 119.594 211.339 119.592H229.056C230.817 119.594 232.506 120.295 233.751 121.54C234.997 122.786 235.698 124.474 235.7 126.236V198.582C235.698 200.343 234.997 202.032 233.752 203.277C232.507 204.523 230.818 205.223 229.057 205.226Z" fill="#F2F2F2"/>
<path d="M234.962 133.618H205.433V139.524H234.962V133.618Z" fill="#CCCCCC"/>
<path d="M234.962 179.387H205.433V185.293H234.962V179.387Z" fill="#CCCCCC"/>
<path d="M273.351 205.226H255.633C253.871 205.224 252.183 204.523 250.937 203.277C249.692 202.032 248.991 200.343 248.989 198.582V126.236C248.991 124.474 249.692 122.786 250.937 121.54C252.183 120.295 253.871 119.594 255.633 119.592H273.35C275.111 119.594 276.8 120.294 278.046 121.54C279.291 122.785 279.992 124.474 279.994 126.236V198.582C279.992 200.343 279.291 202.032 278.046 203.277C276.8 204.523 275.112 205.223 273.351 205.226Z" fill="#F2F2F2"/>
<path d="M279.255 133.618H249.726V139.524H279.255V133.618Z" fill="#CCCCCC"/>
<path d="M279.255 179.387H249.726V185.293H279.255V179.387Z" fill="#CCCCCC"/>
<path d="M317.644 205.226H299.926C298.164 205.224 296.476 204.523 295.23 203.278C293.984 202.032 293.284 200.343 293.282 198.582V126.236C293.284 124.474 293.985 122.786 295.23 121.54C296.476 120.295 298.165 119.594 299.926 119.592H317.643C319.404 119.594 321.093 120.295 322.339 121.54C323.584 122.786 324.285 124.474 324.287 126.236V198.582C324.285 200.343 323.584 202.032 322.339 203.277C321.094 204.523 319.405 205.223 317.644 205.226Z" fill="#F2F2F2"/>
<path d="M323.549 133.618H294.02V139.524H323.549V133.618Z" fill="#CCCCCC"/>
<path d="M323.549 179.387H294.02V185.293H323.549V179.387Z" fill="#CCCCCC"/>
<path d="M112.417 324.817H94.6989C92.9374 324.815 91.2486 324.115 90.003 322.869C88.7574 321.623 88.0568 319.935 88.0549 318.173V245.827C88.057 244.066 88.7577 242.377 90.0032 241.131C91.2488 239.886 92.9375 239.185 94.6989 239.183H112.416C114.177 239.185 115.866 239.886 117.112 241.131C118.357 242.377 119.058 244.066 119.06 245.827V318.173C119.058 319.935 118.357 321.623 117.112 322.869C115.866 324.115 114.177 324.815 112.416 324.817H112.417Z" fill="#F2F2F2"/>
<path d="M118.324 253.21H88.7949V259.116H118.324V253.21Z" fill="#CCCCCC"/>
<path d="M118.324 298.979H88.7949V304.885H118.324V298.979Z" fill="#CCCCCC"/>
<path d="M156.711 324.817H138.993C137.231 324.815 135.542 324.115 134.297 322.869C133.051 321.623 132.351 319.935 132.349 318.173V245.827C132.351 244.066 133.052 242.377 134.297 241.131C135.543 239.886 137.231 239.185 138.993 239.183H156.71C158.471 239.185 160.16 239.886 161.406 241.131C162.651 242.377 163.352 244.066 163.354 245.827V318.173C163.352 319.935 162.651 321.623 161.406 322.869C160.16 324.114 158.471 324.815 156.71 324.817H156.711Z" fill="#F2F2F2"/>
<path d="M162.617 253.21H133.088V259.116H162.617V253.21Z" fill="#CCCCCC"/>
<path d="M162.617 298.979H133.088V304.885H162.617V298.979Z" fill="#CCCCCC"/>
<path d="M201.004 324.817H183.286C181.524 324.815 179.835 324.115 178.59 322.869C177.344 321.623 176.644 319.935 176.642 318.173V245.827C176.644 244.066 177.345 242.377 178.59 241.131C179.836 239.886 181.524 239.185 183.286 239.183H201.003C202.764 239.185 204.453 239.886 205.699 241.131C206.944 242.377 207.645 244.066 207.647 245.827V318.173C207.645 319.935 206.944 321.623 205.699 322.869C204.453 324.114 202.764 324.815 201.003 324.817H201.004Z" fill="#F2F2F2"/>
<path d="M206.911 253.21H177.382V259.116H206.911V253.21Z" fill="#CCCCCC"/>
<path d="M206.911 298.979H177.382V304.885H206.911V298.979Z" fill="#CCCCCC"/>
<path d="M249.726 85.634H232.008C230.246 85.6321 228.557 84.9316 227.312 83.686C226.066 82.4404 225.366 80.7515 225.364 78.99V6.644C225.366 4.88247 226.066 3.19362 227.312 1.94803C228.557 0.702438 230.246 0.00185299 232.008 0H249.725C251.486 0.00185299 253.175 0.702438 254.421 1.94803C255.666 3.19362 256.367 4.88247 256.369 6.644V78.99C256.367 80.7513 255.666 82.4398 254.421 83.6853C253.175 84.9308 251.487 85.6316 249.726 85.634Z" fill="#F2F2F2"/>
<path d="M255.633 14.0259H226.104V19.9319H255.633V14.0259Z" fill="#CCCCCC"/>
<path d="M255.633 59.7949H226.104V65.7009H255.633V59.7949Z" fill="#CCCCCC"/>
<path d="M294.02 85.634H276.302C274.54 85.6321 272.852 84.9316 271.606 83.686C270.36 82.4404 269.66 80.7515 269.658 78.99V6.644C269.66 4.88247 270.36 3.19362 271.606 1.94803C272.852 0.702438 274.54 0.00185299 276.302 0H294.019C295.78 0.00185299 297.469 0.702438 298.715 1.94803C299.961 3.19362 300.661 4.88247 300.663 6.644V78.99C300.661 80.7515 299.961 82.4404 298.715 83.686C297.469 84.9316 295.78 85.6321 294.019 85.634H294.02Z" fill="#F2F2F2"/>
<path d="M299.926 14.0259H270.397V19.9319H299.926V14.0259Z" fill="#CCCCCC"/>
<path d="M299.926 59.7949H270.397V65.7009H299.926V59.7949Z" fill="#CCCCCC"/>
<path d="M338.313 85.634H320.595C318.833 85.6321 317.145 84.9316 315.899 83.686C314.653 82.4404 313.953 80.7515 313.951 78.99V6.644C313.953 4.88247 314.653 3.19362 315.899 1.94803C317.145 0.702438 318.833 0.00185299 320.595 0H338.312C340.073 0.00185299 341.762 0.702438 343.008 1.94803C344.253 3.19362 344.954 4.88247 344.956 6.644V78.99C344.954 80.7513 344.254 82.44 343.008 83.6856C341.763 84.9312 340.074 85.6319 338.313 85.634Z" fill="#F2F2F2"/>
<path d="M344.219 14.0259H314.69V19.9319H344.219V14.0259Z" fill="#CCCCCC"/>
<path d="M344.219 59.7949H314.69V65.7009H344.219V59.7949Z" fill="#CCCCCC"/>
<path d="M382.606 85.634H364.888C363.126 85.6319 361.438 84.9312 360.192 83.6857C358.947 82.4401 358.246 80.7514 358.244 78.99V6.644C358.246 4.88255 358.947 3.19385 360.192 1.94832C361.438 0.702785 363.126 0.00211713 364.888 0H382.605C384.366 0.00185299 386.055 0.702438 387.301 1.94803C388.546 3.19362 389.247 4.88247 389.249 6.644V78.99C389.247 80.7513 388.547 82.44 387.301 83.6856C386.056 84.9312 384.367 85.6319 382.606 85.634Z" fill="#F2F2F2"/>
<path d="M388.513 14.0259H358.984V19.9319H388.513V14.0259Z" fill="#CCCCCC"/>
<path d="M388.513 59.7949H358.984V65.7009H388.513V59.7949Z" fill="#CCCCCC"/>
<path d="M448.959 87.848H28.1718C27.7802 87.848 27.4047 87.6925 27.1278 87.4156C26.8509 87.1387 26.6953 86.7631 26.6953 86.3715C26.6953 85.9799 26.8509 85.6044 27.1278 85.3275C27.4047 85.0506 27.7802 84.895 28.1718 84.895H448.959C449.35 84.895 449.726 85.0506 450.003 85.3275C450.28 85.6044 450.435 85.9799 450.435 86.3715C450.435 86.7631 450.28 87.1387 450.003 87.4156C449.726 87.6925 449.35 87.848 448.959 87.848Z" fill="#CCCCCC"/>
<path d="M448.959 207.44H28.1718C27.7802 207.44 27.4047 207.284 27.1278 207.007C26.8509 206.73 26.6953 206.355 26.6953 205.963C26.6953 205.572 26.8509 205.196 27.1278 204.919C27.4047 204.642 27.7802 204.487 28.1718 204.487H448.959C449.35 204.487 449.726 204.642 450.003 204.919C450.28 205.196 450.435 205.572 450.435 205.963C450.435 206.355 450.28 206.73 450.003 207.007C449.726 207.284 449.35 207.44 448.959 207.44Z" fill="#CCCCCC"/>
<path d="M448.959 327.032H28.1718C27.7802 327.032 27.4047 326.877 27.1278 326.6C26.8509 326.323 26.6953 325.947 26.6953 325.556C26.6953 325.164 26.8509 324.788 27.1278 324.512C27.4047 324.235 27.7802 324.079 28.1718 324.079H448.959C449.35 324.079 449.726 324.235 450.003 324.512C450.28 324.788 450.435 325.164 450.435 325.556C450.435 325.947 450.28 326.323 450.003 326.6C449.726 326.877 449.35 327.032 448.959 327.032Z" fill="#CCCCCC"/>
<path d="M424.04 558.807C424.04 547.391 381.073 538.137 328.071 538.137C275.069 538.137 232.102 547.391 232.102 558.807C232.102 566.124 249.767 572.547 276.395 576.221V689.473C276.363 690.754 276.587 692.028 277.055 693.22C277.523 694.412 278.225 695.499 279.119 696.416C280.014 697.333 281.082 698.062 282.263 698.559C283.443 699.057 284.711 699.313 285.992 699.313C287.273 699.313 288.541 699.057 289.721 698.559C290.901 698.062 291.97 697.333 292.864 696.416C293.759 695.499 294.46 694.412 294.928 693.22C295.396 692.028 295.621 690.754 295.589 689.473V578.261C305.735 579.047 316.668 579.478 328.071 579.478C339.474 579.478 350.407 579.047 360.553 578.261V689.473C360.521 690.754 360.745 692.028 361.213 693.22C361.681 694.412 362.383 695.499 363.277 696.416C364.172 697.333 365.24 698.062 366.421 698.559C367.601 699.057 368.869 699.313 370.15 699.313C371.431 699.313 372.699 699.057 373.879 698.559C375.059 698.062 376.128 697.333 377.022 696.416C377.917 695.499 378.618 694.412 379.086 693.22C379.554 692.028 379.779 690.754 379.747 689.473V576.221C406.375 572.547 424.04 566.124 424.04 558.807Z" fill="#E6E6E6"/>
<path d="M248.661 500.381L342.419 491.175C342.419 491.175 360.584 509.352 360.373 513.408C360.162 517.464 312.943 556.533 283.711 553.868C254.479 551.203 248.661 500.381 248.661 500.381Z" fill="#D6D6E3"/>
<path d="M314.963 301.496C316.465 296.28 319.382 291.582 323.393 287.924C327.403 284.266 332.348 281.791 337.68 280.774C343.012 279.757 348.521 280.237 353.597 282.162C358.672 284.086 363.114 287.38 366.431 291.677C369.748 295.973 371.808 301.105 372.385 306.503C372.961 311.9 372.03 317.351 369.696 322.251C367.361 327.152 363.714 331.309 359.159 334.262C354.605 337.215 349.321 338.847 343.895 338.979L338.712 341.16L346.057 368.433L308.179 375.569L292.786 335.946C292.786 335.946 315.132 336.365 320.836 328.661C317.688 324.971 315.503 320.559 314.479 315.818C313.454 311.078 313.62 306.156 314.963 301.496Z" fill="#ED9DA0"/>
<path d="M401.299 428.538L344.886 400.383L339.607 412.592L393.515 444.042C394.298 446.328 395.528 448.435 397.135 450.24C398.741 452.046 400.69 453.513 402.87 454.557C411.148 458.712 420.643 456.524 424.081 449.674C427.519 442.824 423.595 433.904 415.318 429.75C413.178 428.627 410.836 427.941 408.428 427.732C406.021 427.524 403.596 427.797 401.295 428.535L401.299 428.538Z" fill="#ED9DA0"/>
<path d="M305.577 335.354C305.577 335.354 311.077 363.899 330.301 363.308C349.525 362.717 337.689 342.018 337.689 342.018L364.127 359.318C364.127 359.318 371.994 370.407 371.994 384.304L377.612 411.212L385.595 419.492L361.942 438.118L349.819 420.967C349.819 420.967 351.997 468.367 349.819 491.811C347.641 515.255 251.349 501.336 251.349 501.336C251.349 501.336 247.249 501.706 248.572 486.571C249.895 471.436 251.349 385.778 251.349 385.778C251.349 385.778 256.079 349.406 276.188 342.015C296.297 334.624 305.576 335.351 305.576 335.351L305.577 335.354Z" fill="#FF8B16"/>
<path d="M349.108 289.667C349.108 289.667 360.635 300.097 372.44 298.45C384.245 296.803 386.44 292.686 386.44 291.039C386.44 291.039 386.44 291.588 383.148 292.686L381.774 280.886C381.774 280.886 380.127 283.986 374.089 285.041C374.089 285.041 379.304 282.862 374.089 278.58C374.089 278.58 371.344 280.885 368.874 280.885C368.874 280.885 355.15 262.219 327.974 274.023L325.504 275.395L322.316 275.118L319.19 274.846C319.19 274.846 312.329 282.807 312.878 288.296C313.427 293.785 303.015 321.359 320.984 329.805C320.984 329.805 316.721 305.315 324.132 311.078C331.543 316.841 336.209 307.786 336.209 307.786L349.109 289.669L349.108 289.667Z" fill="#090814"/>
<path d="M356.058 435.559L293.031 434.246L289.983 455.91L355.664 452.9C357.35 454.63 359.364 456.008 361.588 456.952C363.812 457.896 366.202 458.389 368.619 458.4C377.877 458.612 385.527 452.573 385.701 444.912C385.875 437.251 378.514 430.866 369.256 430.652C366.841 430.552 364.431 430.934 362.166 431.775C359.901 432.617 357.826 433.9 356.062 435.552L356.058 435.559Z" fill="#ED9DA0"/>
<path d="M293.339 387.556C293.339 387.556 295.409 400.567 289.199 405.002C289.199 405.002 291.269 420.97 286.242 425.997C286.242 425.997 295.479 426.371 293.67 431.211C293.67 431.211 307.237 428.954 305.464 434.572C305.464 434.572 292.909 449.641 295.934 459.406L254.9 457.342L250.321 433.715" fill="#FF8B16"/>
<path d="M139.818 448.656C141.642 429.011 146.68 409.799 154.731 391.787C156.975 386.775 159.445 381.873 162.14 377.081C162.265 376.831 162.29 376.544 162.21 376.276C162.13 376.009 161.952 375.782 161.711 375.641C161.47 375.5 161.184 375.456 160.912 375.518C160.64 375.579 160.402 375.742 160.245 375.973C150.443 393.426 143.575 412.372 139.918 432.052C138.901 437.548 138.136 443.082 137.624 448.652C137.494 450.062 139.689 450.053 139.818 448.656Z" fill="#3F3D56"/>
<path d="M167.456 380.6C175.133 380.6 181.356 374.377 181.356 366.7C181.356 359.023 175.133 352.8 167.456 352.8C159.779 352.8 153.556 359.023 153.556 366.7C153.556 374.377 159.779 380.6 167.456 380.6Z" fill="#FF8B16"/>
<path d="M141.241 449.024C142.424 436.28 145.693 423.816 150.916 412.131C152.372 408.879 153.974 405.699 155.723 402.59C155.815 402.427 155.84 402.235 155.791 402.054C155.742 401.873 155.624 401.719 155.463 401.624C155.301 401.53 155.109 401.503 154.928 401.549C154.746 401.595 154.591 401.711 154.494 401.871C148.134 413.193 143.678 425.482 141.305 438.249C140.645 441.814 140.149 445.405 139.817 449.021C139.733 449.936 141.157 449.931 141.241 449.024Z" fill="#3F3D56"/>
<path d="M159.169 404.873C164.149 404.873 168.186 400.836 168.186 395.856C168.186 390.876 164.149 386.839 159.169 386.839C154.189 386.839 150.152 390.876 150.152 395.856C150.152 400.836 154.189 404.873 159.169 404.873Z" fill="#FF8B16"/>
<path d="M139.442 448.174C132.537 437.397 127.448 425.56 124.379 413.134C123.527 409.675 122.834 406.182 122.301 402.655C122.272 402.471 122.173 402.305 122.024 402.193C121.874 402.082 121.687 402.033 121.502 402.058C121.317 402.083 121.15 402.179 121.035 402.327C120.921 402.474 120.869 402.66 120.89 402.845C122.84 415.685 126.887 428.118 132.869 439.645C134.542 442.862 136.359 445.999 138.321 449.054C138.814 449.818 139.934 448.94 139.442 448.174Z" fill="#3F3D56"/>
<path d="M120.879 404.24C125.859 404.24 129.896 400.203 129.896 395.223C129.896 390.243 125.859 386.206 120.879 386.206C115.899 386.206 111.862 390.243 111.862 395.223C111.862 400.203 115.899 404.24 120.879 404.24Z" fill="#FF8B16"/>
<path d="M111.76 456.153V438.435C111.762 436.673 112.462 434.985 113.708 433.739C114.953 432.493 116.642 431.793 118.404 431.791H159.744C161.505 431.793 163.194 432.493 164.44 433.739C165.685 434.985 166.386 436.673 166.388 438.435V456.152C166.386 457.914 165.685 459.602 164.44 460.848C163.194 462.094 161.505 462.794 159.744 462.796H118.404C116.643 462.794 114.954 462.093 113.708 460.848C112.463 459.603 111.762 457.914 111.76 456.153Z" fill="#CCCCCC"/>
<path d="M469.082 451.027H349.108C347.175 451.027 345.608 452.594 345.608 454.527V457.862C345.608 459.795 347.175 461.362 349.108 461.362H469.082C471.015 461.362 472.582 459.795 472.582 457.862V454.527C472.582 452.594 471.015 451.027 469.082 451.027Z" fill="#CCCCCC"/>
<path d="M545.667 461.362H414.267C411.721 461.36 409.281 460.348 407.481 458.548C405.681 456.748 404.669 454.307 404.667 451.762V379.414C404.669 376.869 405.681 374.428 407.481 372.628C409.281 370.828 411.721 369.816 414.267 369.814H545.667C548.212 369.816 550.653 370.828 552.453 372.628C554.253 374.428 555.265 376.869 555.267 379.414V451.76C555.265 454.306 554.253 456.747 552.453 458.547C550.653 460.347 548.213 461.36 545.667 461.362Z" fill="#CCCCCC"/>
<path d="M479.965 424.452C484.857 424.452 488.824 420.486 488.824 415.593C488.824 410.7 484.857 406.734 479.965 406.734C475.072 406.734 471.106 410.7 471.106 415.593C471.106 420.486 475.072 424.452 479.965 424.452Z" fill="white"/>
<path d="M895.026 558.807C895.026 547.391 852.059 538.137 799.057 538.137C746.055 538.137 703.088 547.391 703.088 558.807C703.088 566.124 720.753 572.547 747.381 576.221V689.473C747.349 690.754 747.573 692.028 748.041 693.22C748.509 694.412 749.211 695.499 750.105 696.416C751 697.333 752.068 698.062 753.249 698.559C754.429 699.057 755.697 699.313 756.978 699.313C758.259 699.313 759.527 699.057 760.707 698.559C761.887 698.062 762.956 697.333 763.85 696.416C764.745 695.499 765.447 694.412 765.914 693.22C766.382 692.028 766.607 690.754 766.575 689.473V578.261C776.721 579.047 787.654 579.478 799.057 579.478C810.46 579.478 821.393 579.047 831.539 578.261V689.473C831.601 691.977 832.64 694.357 834.433 696.106C836.226 697.854 838.631 698.833 841.136 698.833C843.64 698.833 846.046 697.854 847.839 696.106C849.632 694.357 850.67 691.977 850.733 689.473V576.221C877.361 572.547 895.026 566.124 895.026 558.807Z" fill="#E6E6E6"/>
<path d="M706.792 681.977H688.692L680.081 612.159H706.792V681.977Z" fill="#9F616A"/>
<path d="M678.535 671.877L661.265 666.457L673.951 597.263L699.44 605.263L678.535 671.877Z" fill="#9F616A"/>
<path d="M679.588 668.247C679.588 668.247 684.015 689.443 677.194 691.739C670.374 694.036 662.385 689.708 655.099 691.345C647.813 692.983 630.345 682.897 630.345 682.897C630.345 682.897 629.177 676.275 641.919 676.772C641.919 676.772 657.258 668.974 657.656 666.715C658.054 664.456 665.974 665.847 665.974 665.847L679.588 668.247Z" fill="#090814"/>
<path d="M684.422 644.019C683.629 644.019 682.843 643.876 682.101 643.597L668.785 638.604C667.29 638.038 666.048 636.954 665.285 635.549C664.523 634.145 664.29 632.513 664.63 630.951C667.983 615.877 679.409 564.551 685.665 537.027C693.086 504.375 801.334 498.308 805.938 498.066L806.317 498.046L818.494 513.346C822.894 527.489 821.5 538.52 814.349 546.135C793.483 568.351 731.185 554.566 723.756 552.821L690.643 639.741C690.16 641 689.307 642.082 688.197 642.846C687.086 643.61 685.77 644.019 684.422 644.019Z" fill="#2F2E41"/>
<path d="M703.616 654.354C702.823 654.354 702.037 654.211 701.295 653.932L687.978 648.939C686.483 648.373 685.241 647.289 684.478 645.884C683.716 644.48 683.483 642.848 683.823 641.286C687.176 626.211 698.602 574.886 704.858 547.362C712.278 514.71 820.527 508.643 825.131 508.401L825.51 508.381L837.687 523.681C842.087 537.824 840.692 548.856 833.542 556.47C812.676 578.684 750.378 564.901 742.949 563.156L709.836 650.076C709.353 651.335 708.5 652.417 707.39 653.181C706.279 653.945 704.964 654.354 703.616 654.354Z" fill="#2F2E41"/>
<path d="M958.456 699.758H1.54285C1.11612 699.702 0.724293 699.493 0.440414 699.17C0.156536 698.846 0 698.431 0 698C0 697.57 0.156536 697.154 0.440414 696.831C0.724293 696.507 1.11612 696.298 1.54285 696.242H958.456C958.883 696.298 959.274 696.507 959.558 696.831C959.842 697.154 959.999 697.57 959.999 698C959.999 698.431 959.842 698.846 959.558 699.17C959.274 699.493 958.883 699.702 958.456 699.758Z" fill="#E6E6E6"/>
<path d="M386.762 686.12V695.609C386.762 695.609 432.079 696.427 442.062 696.427C452.045 696.427 465.784 691.518 466.602 687.592C467.42 683.666 455.15 680.392 450.569 680.23C445.988 680.068 445.824 678.266 439.935 675.159C436.611 673.405 426.52 670.88 422.757 666.779C419.857 663.615 422.757 658.471 422.757 658.471C422.757 658.471 417.864 658.371 411.61 658.628C404.396 658.92 395.228 659.742 391.345 661.909C389.625 663.053 388.381 664.785 387.845 666.781C385.306 674.105 386.762 686.12 386.762 686.12Z" fill="#090814"/>
<path d="M256.371 515.487C256.371 515.487 257.316 516.06 259.015 517.087C259.323 517.27 259.653 517.473 260.007 517.687C261.083 518.338 262.376 519.113 263.852 520.004C284.413 532.395 340.503 565.986 343.572 565.718C344.377 565.649 346.795 565.286 350.132 564.743C351.015 564.599 351.964 564.443 352.966 564.273C365.811 562.139 387.159 558.282 389.543 557.208C392.815 555.736 392.16 562.279 390.852 567.842C389.544 573.405 386.609 674.298 386.609 674.298C391.844 672.335 425.849 669.498 425.849 669.498C425.849 669.498 429.785 571.439 430.113 546.083C430.441 520.727 415.716 519.898 415.716 519.898C415.716 519.898 386.087 515.798 384.795 515.373C376.779 512.644 349.785 512.536 345.367 514.5C342.539 515.635 339.382 515.639 336.552 514.51L336.532 514.5L333.096 508.939L300.279 511.739L296.801 512.039L264.501 514.794L262.279 514.984L256.371 515.487Z" fill="#D6D6E3"/>
<path d="M281.856 684.156L311.632 697.406C311.632 697.406 350.245 698.224 356.949 696.425C363.653 694.626 362.184 687.1 353.349 685.625C344.514 684.15 342.384 680.225 339.443 678.425C337.457 677.211 330.402 669.365 326.024 664.391C323.917 661.991 322.424 660.265 322.424 660.265C322.424 660.265 316.698 645.05 300.824 648.485C297.928 649.111 295.257 650.516 293.102 652.549C284.552 660.464 283.809 676.133 283.809 676.133L281.856 684.156Z" fill="#090814"/>
<path opacity="0.1" d="M292.425 518.246C293.491 518.89 294.771 519.658 296.232 520.54C316.591 532.81 372.132 566.069 375.168 565.804C375.968 565.736 378.359 565.377 381.668 564.838C382.543 564.695 383.482 564.543 384.474 564.373C384.513 564.312 384.552 564.25 384.584 564.188C386.215 561.339 387.462 558.286 388.293 555.11C391.693 542.15 374.848 532.269 374.848 532.269L371.281 529.499C367.231 522.679 338.072 516.231 338.072 516.231L334.312 513.704L332.307 512.356L331.779 512.003L327.212 508.943L304.371 510.563L297.587 514.924L296.871 515.384L294.354 517.004L292.425 518.246Z" fill="black"/>
<path d="M286.273 554.256C295.925 554.256 332.736 568.489 332.736 568.489L314.085 599.246L289.775 650.415C291.411 681.666 325.537 665.832 325.537 665.832C328.809 657.488 381.459 568.668 383.632 564.732C385.279 561.854 386.539 558.772 387.378 555.564C390.146 545.025 379.65 536.498 375.458 533.583C374.44 532.883 373.799 532.497 373.799 532.497L370.199 529.697C368.34 526.564 361.233 523.51 354.039 521.111C348.849 519.38 343.611 517.989 340.264 517.155C338.049 516.607 336.664 516.297 336.664 516.297L332.864 513.748L331.533 512.848L330.31 512.026L325.703 508.926L315.439 509.653L302.639 510.562L295.787 514.962L292.522 517.062L279.731 525.299C279.731 525.299 279.394 528.447 279.286 532.671C279.28 532.998 279.273 533.329 279.266 533.671C279.13 542.223 280.05 554.256 286.273 554.256Z" fill="#D6D6E3"/>
<path d="M774.497 353.015C768.683 350.969 763.712 347.054 760.359 341.882C757.007 336.711 755.463 330.574 755.968 324.432C756.473 318.289 759 312.488 763.152 307.933C767.305 303.379 772.849 300.329 778.919 299.261C784.988 298.192 791.241 299.165 796.699 302.027C802.158 304.889 806.514 309.479 809.087 315.079C811.659 320.679 812.304 326.974 810.92 332.98C809.535 338.986 806.2 344.363 801.435 348.272C806.722 362.637 824.878 381.362 824.878 381.362L784.045 389.393L774.497 353.015Z" fill="#9F616A"/>
<path d="M804.548 350.162C801.681 344.717 804.248 337.721 801.833 332.054C799.71 327.065 794.37 324.431 789.681 321.697C786.296 319.73 782.816 317.083 781.13 313.727C776.66 312.332 771.905 312.119 767.328 313.11C763.047 314.074 758.892 316.21 756.273 319.722C753.654 323.234 752.847 328.261 754.97 332.11C753.602 331.402 752.414 330.391 751.498 329.154C750.581 327.917 749.959 326.486 749.68 324.972C749.401 323.458 749.472 321.899 749.888 320.417C750.304 318.934 751.054 317.566 752.08 316.418C750.513 314.112 749.556 311.447 749.299 308.671C749.041 305.896 749.492 303.1 750.609 300.546C752.886 295.472 767.509 291.466 773.025 290.811L772.404 290.256C772.404 290.256 769.523 283.976 769.543 282.404C769.58 279.072 769.648 275.617 771.096 272.622C773.292 268.099 778.281 265.502 783.228 264.605C789.582 263.447 796.654 264.786 801.263 269.323C805.872 273.86 807.124 281.863 803.118 286.928C813.134 292.918 818.699 301.41 821.896 312.621C825.093 323.832 816.328 337.963 810.99 348.334C810.913 348.316 810.837 348.294 810.763 348.268C812.649 350.906 815.219 352.98 818.195 354.268C816.804 355.015 815.247 355.4 813.668 355.388C811.82 355.409 810 354.936 808.396 354.017C806.793 353.098 805.464 351.767 804.548 350.162Z" fill="#090814"/>
<path d="M756.112 408.522L758.012 448.435C758.012 448.435 757.062 500.701 765.612 504.502C769.936 506.42 766.168 520.613 774.197 524.832C780.221 527.987 781.24 521.952 784.397 524.832C785.233 525.544 785.955 526.381 786.535 527.313C790.335 533.965 832.135 532.062 837.835 527.313C843.535 522.564 836.168 531.234 840.92 533.135C845.52 534.979 855.463 521.688 851.557 499.185C851.434 498.436 851.291 497.674 851.141 496.904C846.779 475.096 853.631 422.858 852.576 402.673C852.514 401.131 852.352 399.594 852.091 398.073C849.24 382.873 812.863 351.928 806.062 365.107C797.68 381.376 778.428 366.513 775.121 359.114C756.115 358.164 749.463 380.971 749.463 380.971L756.112 408.522Z" fill="#FF8B16"/>
<path d="M751.361 462.688L725.703 475.988C725.703 475.988 710.503 459.833 700.997 472.188C691.491 484.543 728.555 488.35 728.555 488.35C728.555 488.35 760.864 480.75 761.815 470.295C762.766 459.84 751.361 462.688 751.361 462.688Z" fill="#9F616A"/>
<path d="M760.861 372.412C759.911 373.363 749.461 380.964 749.461 380.964C749.461 380.964 746.61 417.074 750.411 424.678C754.212 432.282 757.063 432.278 754.211 436.078C751.359 439.878 747.559 437.028 751.36 443.678C755.161 450.328 758.96 449.378 756.109 452.23C753.258 455.082 754.209 456.03 754.209 456.03L742.809 465.53C742.809 465.53 749.809 476.673 758.661 475.851C767.513 475.029 775.119 432.268 775.119 432.268L760.861 372.412Z" fill="#FF8B16"/>
<path d="M682.744 426.306L724.832 414.703L758.422 497.637L720.651 511.729L682.744 426.306Z" fill="#D6D6E3"/>
<path d="M662.486 459.886H74.8598C72.356 459.949 69.9759 460.987 68.2272 462.78C66.4785 464.573 65.4998 466.979 65.4998 469.483C65.4998 471.988 66.4785 474.393 68.2272 476.186C69.9759 477.979 72.356 479.018 74.8598 479.08H91.8388V687.997C91.8068 689.278 92.0313 690.552 92.4992 691.744C92.9671 692.936 93.6689 694.023 94.5632 694.94C95.4575 695.857 96.5263 696.586 97.7066 697.083C98.8869 697.581 100.155 697.837 101.436 697.837C102.717 697.837 103.985 697.581 105.165 697.083C106.345 696.586 107.414 695.857 108.308 694.94C109.203 694.023 109.904 692.936 110.372 691.744C110.84 690.552 111.065 689.278 111.033 687.997V497.521L218.623 692.527C219.926 694.67 222.017 696.218 224.447 696.84C226.877 697.461 229.454 697.107 231.626 695.852C233.798 694.598 235.393 692.543 236.07 690.127C236.746 687.712 236.45 685.127 235.245 682.927L122.776 479.078H636.648V479.202L524.248 682.928C523.58 684.021 523.138 685.236 522.947 686.503C522.757 687.769 522.821 689.06 523.137 690.301C523.453 691.542 524.014 692.707 524.787 693.728C525.561 694.749 526.53 695.605 527.639 696.245C528.748 696.886 529.974 697.298 531.244 697.458C532.515 697.617 533.804 697.521 535.037 697.174C536.27 696.828 537.421 696.239 538.422 695.441C539.424 694.643 540.256 693.653 540.869 692.528L636.648 518.928V687.997C636.616 689.278 636.84 690.552 637.308 691.744C637.776 692.936 638.478 694.023 639.372 694.94C640.267 695.857 641.335 696.586 642.516 697.083C643.696 697.581 644.964 697.837 646.245 697.837C647.526 697.837 648.794 697.581 649.974 697.083C651.154 696.586 652.223 695.857 653.117 694.94C654.012 694.023 654.713 692.936 655.181 691.744C655.649 690.552 655.874 689.278 655.842 687.997V484.14L658.634 479.08H662.486C664.99 479.018 667.37 477.979 669.118 476.186C670.867 474.393 671.846 471.988 671.846 469.483C671.846 466.979 670.867 464.573 669.118 462.78C667.37 460.987 664.99 459.949 662.486 459.886Z" fill="#3F3D56"/>
<path d="M794.123 497.849L778.923 501.649C778.923 501.649 771.394 486.574 753.339 494.176C735.284 501.778 766.569 511.151 766.569 511.151C766.569 511.151 788.426 522.551 796.978 513.051C805.53 503.551 794.123 497.849 794.123 497.849Z" fill="#9F616A"/>
<path d="M844.49 395.217L853.043 398.065C853.043 398.065 875.849 481.691 849.243 495.945C822.637 510.199 793.176 524.454 792.227 520.651C791.278 516.848 780.827 501.645 783.675 499.745C786.523 497.845 828.335 475.039 828.335 475.039V410.42L844.49 395.217Z" fill="#FF8B16"/>
<path opacity="0.1" d="M831.662 429.904L833.562 475.517L783.196 499.275L829.761 475.519L831.662 429.904Z" fill="black"/>
<path d="M708.765 671.882C708.765 671.882 715.741 692.38 709.252 695.491C702.762 698.602 694.305 695.28 687.273 697.793C680.241 700.306 661.674 692.424 661.674 692.424C661.674 692.424 659.708 685.994 672.416 684.935C672.416 684.935 686.689 675.326 686.809 673.035C686.929 670.744 694.959 671.159 694.959 671.159L708.765 671.882Z" fill="#090814"/>
</svg>
